<?xml version="1.0" encoding="UTF-8" standalone="no"?>
<!-- Created with Inkscape (http://www.inkscape.org/) -->

<svg
   xmlns:dc="http://purl.org/dc/elements/1.1/"
   xmlns:cc="http://creativecommons.org/ns#"
   xmlns:rdf="http://www.w3.org/1999/02/22-rdf-syntax-ns#"
   xmlns:svg="http://www.w3.org/2000/svg"
   xmlns="http://www.w3.org/2000/svg"
   xmlns:sodipodi="http://sodipodi.sourceforge.net/DTD/sodipodi-0.dtd"
   xmlns:inkscape="http://www.inkscape.org/namespaces/inkscape"
   width="297mm"
   height="210mm"
   viewBox="0 0 297 210"
   version="1.1"
   id="svg8"
   inkscape:version="0.92.3 (2405546, 2018-03-11)"
   sodipodi:docname="giec-land.svg">
  <defs
     id="defs2" />
  <sodipodi:namedview
     id="base"
     pagecolor="#ffffff"
     bordercolor="#666666"
     borderopacity="1.0"
     inkscape:pageopacity="0.0"
     inkscape:pageshadow="2"
     inkscape:zoom="0.95010893"
     inkscape:cx="125.83811"
     inkscape:cy="480"
     inkscape:document-units="mm"
     inkscape:current-layer="layer1"
     showgrid="false"
     inkscape:window-width="1366"
     inkscape:window-height="700"
     inkscape:window-x="0"
     inkscape:window-y="768"
     inkscape:window-maximized="1"
     inkscape:pagecheckerboard="true" />
  <metadata
     id="metadata5">
    <rdf:RDF>
      <cc:Work
         rdf:about="">
        <dc:format>image/svg+xml</dc:format>
        <dc:type
           rdf:resource="http://purl.org/dc/dcmitype/StillImage" />
        <dc:title></dc:title>
      </cc:Work>
    </rdf:RDF>
  </metadata>
  <g
     inkscape:label="Camada 1"
     inkscape:groupmode="layer"
     id="layer1"
     transform="translate(0,-87)">
    <rect
       style="opacity:0.39;fill:#ffffff;fill-opacity:1;fill-rule:nonzero;stroke:none;stroke-width:31.18476868;stroke-miterlimit:4;stroke-dasharray:none;stroke-dashoffset:0;stroke-opacity:1"
       id="rect30"
       width="213.52803"
       height="78.251999"
       x="24.988277"
       y="127.40761"
       inkscape:export-xdpi="150"
       inkscape:export-ydpi="150" />
    <g
       transform="matrix(0.19006434,0,0,0.19006434,73.728815,140.97848)"
       id="layer1-3"
       inkscape:label="Camada 1"
       inkscape:export-xdpi="150"
       inkscape:export-ydpi="150">
      <circle
         r="153.08035"
         cy="151.29018"
         cx="-51.971725"
         id="path819"
         style="opacity:1;fill:#1a5f5f;fill-opacity:1;fill-rule:nonzero;stroke:none;stroke-width:0.2173204;stroke-miterlimit:4;stroke-dasharray:none;stroke-dashoffset:0;stroke-opacity:1" />
      <circle
         r="137.9613"
         cy="140.25333"
         cx="-61.421131"
         id="path819-3"
         style="opacity:0.194;fill:#ffffff;fill-opacity:1;fill-rule:nonzero;stroke:none;stroke-width:0.19585665;stroke-miterlimit:4;stroke-dasharray:none;stroke-dashoffset:0;stroke-opacity:1" />
      <text
         id="text817"
         y="192.87646"
         x="-165.54312"
         style="font-style:normal;font-weight:normal;font-size:151.34268188px;line-height:1.25;font-family:sans-serif;letter-spacing:0px;word-spacing:0px;fill:#ffffff;fill-opacity:1;stroke:none;stroke-width:3.78356671"
         xml:space="preserve"><tspan
           style="font-style:normal;font-variant:normal;font-weight:normal;font-stretch:normal;font-family:Uroob;-inkscape-font-specification:Uroob;fill:#ffffff;stroke-width:3.78356671"
           y="192.87646"
           x="-165.54312"
           id="tspan815"
           sodipodi:role="line">GIEC</tspan></text>
    </g>
    <g
       aria-label="Grupo de Interesse em Educação em Computação"
       style="font-style:normal;font-weight:normal;font-size:15.59297466px;line-height:1.25;font-family:sans-serif;letter-spacing:0px;word-spacing:0px;fill:#000000;fill-opacity:1;stroke:none;stroke-width:0.38982436"
       id="text26"
       inkscape:export-xdpi="150"
       inkscape:export-ydpi="150"
       transform="matrix(0.74734044,0,0,0.74734044,21.76178,45.51024)">
      <path
         d="m 113.16228,149.25259 q 0,0.14466 -0.0152,0.25887 -0.0152,0.10659 -0.0457,0.18273 -0.0305,0.0685 -0.0761,0.099 -0.0457,0.0305 -0.099,0.0305 -0.0914,0 -0.30455,-0.14466 -0.21318,-0.14466 -0.57103,-0.31978 -0.35785,-0.17511 -0.86035,-0.31978 -0.4949,-0.14466 -1.18014,-0.14466 -0.81467,0 -1.46184,0.29694 -0.64717,0.29694 -1.09638,0.82229 -0.44921,0.52534 -0.69285,1.24865 -0.23603,0.72331 -0.23603,1.56844 0,0.9441 0.25887,1.67502 0.26648,0.73092 0.73092,1.23343 0.46444,0.50251 1.104,0.76138 0.64717,0.25886 1.41615,0.25886 0.45683,0 0.92127,-0.10659 0.47205,-0.1142 0.87558,-0.335 v -2.87039 h -2.28413 q -0.12943,0 -0.19795,-0.12943 -0.0609,-0.12944 -0.0609,-0.40353 0,-0.14466 0.0152,-0.24364 0.0152,-0.1066 0.0457,-0.16751 0.0381,-0.0685 0.0837,-0.099 0.0457,-0.0305 0.1142,-0.0305 h 3.12926 q 0.0838,0 0.1675,0.0305 0.0837,0.0305 0.15228,0.0914 0.0685,0.0609 0.10659,0.1675 0.0381,0.1066 0.0381,0.24364 v 3.75359 q 0,0.19795 -0.0685,0.34261 -0.0685,0.14467 -0.28932,0.25887 -0.2208,0.1066 -0.57103,0.23603 -0.35023,0.12943 -0.72331,0.2208 -0.37307,0.0914 -0.75376,0.13705 -0.38069,0.0457 -0.75376,0.0457 -1.14207,0 -2.04049,-0.35023 -0.89842,-0.35785 -1.52275,-1.01263 -0.61671,-0.65479 -0.94411,-1.56844 -0.32739,-0.91365 -0.32739,-2.04049 0,-1.17251 0.35024,-2.12423 0.35784,-0.95172 0.9974,-1.62173 0.64717,-0.67001 1.54559,-1.03547 0.90604,-0.37308 2.00242,-0.37308 0.56342,0 1.05831,0.099 0.4949,0.099 0.87558,0.23603 0.3883,0.12943 0.64717,0.28932 0.26648,0.15227 0.36546,0.25125 0.099,0.099 0.13705,0.22842 0.0381,0.12943 0.0381,0.37307 z"
         style="font-style:normal;font-variant:normal;font-weight:normal;font-stretch:normal;font-family:Calibri;-inkscape-font-specification:Calibri;stroke-width:0.38982436"
         id="path32"
         inkscape:connector-curvature="0" />
      <path
         d="m 119.45886,151.17126 q 0,0.1675 -0.008,0.28171 -0.008,0.1142 -0.0305,0.18273 -0.0228,0.0609 -0.0609,0.099 -0.0305,0.0305 -0.0914,0.0305 -0.0609,0 -0.15227,-0.0305 -0.0838,-0.0381 -0.19796,-0.0685 -0.10659,-0.0381 -0.24364,-0.0685 -0.13705,-0.0305 -0.29694,-0.0305 -0.19034,0 -0.37307,0.0761 -0.18273,0.0761 -0.3883,0.25125 -0.19796,0.17512 -0.41876,0.46444 -0.2208,0.28933 -0.48728,0.70808 v 4.50735 q 0,0.0609 -0.0305,0.10659 -0.0305,0.0381 -0.099,0.0685 -0.0685,0.0305 -0.19035,0.0457 -0.12182,0.0152 -0.31216,0.0152 -0.18273,0 -0.30455,-0.0152 -0.12182,-0.0152 -0.19796,-0.0457 -0.0685,-0.0305 -0.099,-0.0685 -0.0228,-0.0457 -0.0228,-0.10659 v -6.85238 q 0,-0.0609 0.0228,-0.099 0.0228,-0.0457 0.0914,-0.0761 0.0685,-0.0381 0.17511,-0.0457 0.1066,-0.0152 0.28171,-0.0152 0.1675,0 0.2741,0.0152 0.1142,0.008 0.17511,0.0457 0.0609,0.0305 0.0837,0.0761 0.0305,0.0381 0.0305,0.099 v 0.9974 q 0.28171,-0.41115 0.52535,-0.67001 0.25125,-0.25887 0.47205,-0.40353 0.2208,-0.15228 0.43399,-0.20557 0.22079,-0.0609 0.44159,-0.0609 0.099,0 0.2208,0.0152 0.12944,0.008 0.26648,0.0381 0.13705,0.0305 0.24364,0.0685 0.11421,0.0381 0.15989,0.0761 0.0457,0.0381 0.0609,0.0761 0.0152,0.0305 0.0228,0.0838 0.0152,0.0533 0.0152,0.15989 0.008,0.099 0.008,0.2741 z"
         style="font-style:normal;font-variant:normal;font-weight:normal;font-stretch:normal;font-family:Calibri;-inkscape-font-specification:Calibri;stroke-width:0.38982436"
         id="path34"
         inkscape:connector-curvature="0" />
      <path
         d="m 126.77568,157.57443 q 0,0.0609 -0.0305,0.10659 -0.0228,0.0381 -0.0914,0.0685 -0.0685,0.0305 -0.18273,0.0457 -0.1066,0.0152 -0.26648,0.0152 -0.17512,0 -0.28933,-0.0152 -0.10659,-0.0152 -0.17511,-0.0457 -0.0609,-0.0305 -0.0838,-0.0685 -0.0228,-0.0457 -0.0228,-0.10659 v -0.90604 q -0.58626,0.64717 -1.15729,0.94411 -0.57103,0.29693 -1.15729,0.29693 -0.68524,0 -1.15729,-0.22841 -0.46444,-0.22841 -0.75376,-0.61672 -0.28932,-0.39591 -0.41876,-0.91365 -0.12182,-0.52535 -0.12182,-1.27149 v -4.15711 q 0,-0.0609 0.0228,-0.099 0.0305,-0.0457 0.1066,-0.0761 0.0761,-0.0381 0.19795,-0.0457 0.12182,-0.0152 0.30455,-0.0152 0.18273,0 0.30455,0.0152 0.12182,0.008 0.19035,0.0457 0.0761,0.0305 0.10659,0.0761 0.0305,0.0381 0.0305,0.099 v 3.9896 q 0,0.60149 0.0837,0.96695 0.0914,0.35785 0.26648,0.61672 0.18273,0.25125 0.45682,0.39591 0.2741,0.13705 0.63956,0.13705 0.47205,0 0.93649,-0.33501 0.47205,-0.335 0.9974,-0.98217 v -4.78905 q 0,-0.0609 0.0228,-0.099 0.0305,-0.0457 0.1066,-0.0761 0.0761,-0.0381 0.19034,-0.0457 0.12182,-0.0152 0.31217,-0.0152 0.18273,0 0.30455,0.0152 0.12182,0.008 0.19034,0.0457 0.0685,0.0305 0.099,0.0761 0.0381,0.0381 0.0381,0.099 z"
         style="font-style:normal;font-variant:normal;font-weight:normal;font-stretch:normal;font-family:Calibri;-inkscape-font-specification:Calibri;stroke-width:0.38982436"
         id="path36"
         inkscape:connector-curvature="0" />
      <path
         d="m 135.40206,154.04164 q 0,0.89843 -0.19795,1.61412 -0.19035,0.71569 -0.57104,1.2182 -0.37307,0.4949 -0.92887,0.76899 -0.55581,0.26648 -1.2715,0.26648 -0.30455,0 -0.56342,-0.0609 -0.25887,-0.0609 -0.51012,-0.19034 -0.24364,-0.12944 -0.48728,-0.32739 -0.24364,-0.19796 -0.51774,-0.46444 v 3.42619 q 0,0.0609 -0.0305,0.10659 -0.0305,0.0457 -0.099,0.0761 -0.0685,0.0305 -0.19034,0.0457 -0.12182,0.0152 -0.31217,0.0152 -0.18273,0 -0.30455,-0.0152 -0.12182,-0.0152 -0.19796,-0.0457 -0.0685,-0.0305 -0.099,-0.0761 -0.0228,-0.0457 -0.0228,-0.10659 v -9.57049 q 0,-0.0685 0.0228,-0.1066 0.0229,-0.0457 0.0914,-0.0761 0.0685,-0.0305 0.17512,-0.0381 0.10659,-0.0152 0.25886,-0.0152 0.15989,0 0.25887,0.0152 0.10659,0.008 0.17512,0.0381 0.0685,0.0305 0.0914,0.0761 0.0305,0.0381 0.0305,0.1066 v 0.92126 q 0.31216,-0.31978 0.60148,-0.5558 0.28933,-0.23603 0.57865,-0.38831 0.29694,-0.15989 0.60149,-0.23602 0.31216,-0.0837 0.65478,-0.0837 0.74615,0 1.2715,0.28932 0.52535,0.28932 0.85274,0.79183 0.335,0.50251 0.48728,1.17252 0.15227,0.6624 0.15227,1.40854 z m -1.32479,0.14466 q 0,-0.52534 -0.0838,-1.01263 -0.0761,-0.49489 -0.2741,-0.87558 -0.19034,-0.38068 -0.51773,-0.6091 -0.32739,-0.22841 -0.81467,-0.22841 -0.24364,0 -0.47967,0.0761 -0.23603,0.0685 -0.47967,0.22841 -0.24364,0.15228 -0.51012,0.41114 -0.26648,0.25126 -0.56342,0.62433 v 2.72573 q 0.51774,0.63194 0.98218,0.96694 0.46444,0.33501 0.97456,0.33501 0.47205,0 0.80706,-0.22841 0.34262,-0.22842 0.54819,-0.6091 0.21318,-0.38069 0.31216,-0.85275 0.099,-0.47205 0.099,-0.95172 z"
         style="font-style:normal;font-variant:normal;font-weight:normal;font-stretch:normal;font-family:Calibri;-inkscape-font-specification:Calibri;stroke-width:0.38982436"
         id="path38"
         inkscape:connector-curvature="0" />
      <path
         d="m 143.66299,154.0721 q 0,0.83751 -0.2208,1.54559 -0.2208,0.70047 -0.6624,1.21059 -0.43398,0.51012 -1.09638,0.79944 -0.65478,0.28171 -1.52275,0.28171 -0.84513,0 -1.47707,-0.25125 -0.62433,-0.25126 -1.04308,-0.73092 -0.41876,-0.47967 -0.62433,-1.16491 -0.20557,-0.68524 -0.20557,-1.5532 0,-0.83752 0.21318,-1.53798 0.2208,-0.70808 0.65479,-1.2182 0.44159,-0.51013 1.09638,-0.79183 0.65478,-0.28171 1.53036,-0.28171 0.84513,0 1.46946,0.25125 0.63194,0.25125 1.0507,0.73092 0.41875,0.47967 0.62432,1.16491 0.21319,0.68523 0.21319,1.54559 z m -1.32479,0.0837 q 0,-0.5558 -0.1066,-1.0507 -0.099,-0.49489 -0.335,-0.86797 -0.23603,-0.37307 -0.63956,-0.58626 -0.40353,-0.2208 -1.00501,-0.2208 -0.55581,0 -0.95934,0.19796 -0.39591,0.19796 -0.65478,0.56342 -0.25887,0.35785 -0.3883,0.85274 -0.12182,0.4949 -0.12182,1.08115 0,0.56342 0.099,1.05832 0.10659,0.49489 0.34262,0.86797 0.24364,0.36546 0.64717,0.58625 0.40352,0.21319 1.00501,0.21319 0.54819,0 0.95172,-0.19796 0.40353,-0.19796 0.6624,-0.5558 0.25887,-0.35785 0.38069,-0.85274 0.12182,-0.4949 0.12182,-1.08877 z"
         style="font-style:normal;font-variant:normal;font-weight:normal;font-stretch:normal;font-family:Calibri;-inkscape-font-specification:Calibri;stroke-width:0.38982436"
         id="path40"
         inkscape:connector-curvature="0" />
      <path
         d="m 154.91612,157.57443 q 0,0.0609 -0.0305,0.10659 -0.0228,0.0457 -0.0914,0.0761 -0.0609,0.0228 -0.1675,0.0381 -0.10659,0.0152 -0.25887,0.0152 -0.15989,0 -0.26648,-0.0152 -0.10659,-0.0152 -0.17511,-0.0381 -0.0685,-0.0305 -0.099,-0.0761 -0.0305,-0.0457 -0.0305,-0.10659 v -0.90604 q -0.54058,0.58626 -1.12683,0.91365 -0.57865,0.32739 -1.2715,0.32739 -0.75376,0 -1.28673,-0.28932 -0.53296,-0.29694 -0.86797,-0.79183 -0.32739,-0.50251 -0.47966,-1.17252 -0.15228,-0.67762 -0.15228,-1.42377 0,-0.8832 0.19035,-1.59128 0.19034,-0.71569 0.56341,-1.2182 0.37308,-0.50251 0.92127,-0.76899 0.5558,-0.27409 1.27911,-0.27409 0.60149,0 1.09638,0.26648 0.50251,0.25887 0.98979,0.76899 v -3.982 q 0,-0.0533 0.0228,-0.099 0.0305,-0.0533 0.10659,-0.0761 0.0761,-0.0305 0.19035,-0.0457 0.12182,-0.0228 0.30455,-0.0228 0.19034,0 0.31216,0.0228 0.12182,0.0152 0.19035,0.0457 0.0685,0.0228 0.099,0.0761 0.0381,0.0457 0.0381,0.099 z m -1.26388,-4.81951 q -0.51012,-0.63194 -0.98979,-0.95934 -0.47205,-0.335 -0.98979,-0.335 -0.47966,0 -0.81467,0.22841 -0.335,0.22842 -0.54819,0.60149 -0.20557,0.37307 -0.30455,0.84513 -0.0914,0.47205 -0.0914,0.95933 0,0.51774 0.0761,1.01263 0.0838,0.49489 0.28171,0.8832 0.19796,0.38068 0.52535,0.61671 0.32739,0.22841 0.82229,0.22841 0.25125,0 0.47966,-0.0685 0.23603,-0.0685 0.47967,-0.22841 0.24364,-0.15989 0.51012,-0.41115 0.26648,-0.25887 0.56342,-0.63194 z"
         style="font-style:normal;font-variant:normal;font-weight:normal;font-stretch:normal;font-family:Calibri;-inkscape-font-specification:Calibri;stroke-width:0.38982436"
         id="path42"
         inkscape:connector-curvature="0" />
      <path
         d="m 163.08568,153.8513 q 0,0.29694 -0.15227,0.42637 -0.14466,0.12182 -0.33501,0.12182 h -4.49211 q 0,0.57103 0.1142,1.02786 0.11421,0.45682 0.38069,0.78421 0.26648,0.3274 0.69285,0.50251 0.42637,0.17512 1.04309,0.17512 0.48728,0 0.86797,-0.0761 0.38068,-0.0838 0.65478,-0.18273 0.28171,-0.099 0.45682,-0.17512 0.18273,-0.0837 0.2741,-0.0837 0.0533,0 0.0914,0.0305 0.0457,0.0228 0.0685,0.0761 0.0228,0.0533 0.0305,0.15227 0.0152,0.0914 0.0152,0.22841 0,0.099 -0.008,0.17512 -0.008,0.0685 -0.0228,0.12943 -0.008,0.0533 -0.0381,0.099 -0.0228,0.0457 -0.0685,0.0914 -0.0381,0.0381 -0.24364,0.13705 -0.20557,0.0914 -0.53296,0.18273 -0.32739,0.0914 -0.76138,0.15988 -0.42637,0.0761 -0.91365,0.0761 -0.84512,0 -1.48468,-0.23602 -0.63194,-0.23603 -1.06592,-0.70047 -0.43399,-0.46444 -0.65479,-1.16491 -0.2208,-0.70046 -0.2208,-1.62934 0,-0.88319 0.22842,-1.58366 0.22841,-0.70808 0.65478,-1.19536 0.43398,-0.49489 1.04308,-0.75376 0.6091,-0.26648 1.36287,-0.26648 0.80705,0 1.37047,0.25886 0.57103,0.25887 0.93649,0.70047 0.36547,0.43398 0.53297,1.02786 0.17511,0.58626 0.17511,1.25627 z m -1.26388,-0.37307 q 0.0228,-0.98979 -0.4416,-1.55321 -0.45682,-0.56342 -1.36286,-0.56342 -0.46444,0 -0.81467,0.17512 -0.35023,0.17511 -0.58626,0.46444 -0.23603,0.28932 -0.36546,0.67762 -0.12944,0.38069 -0.14466,0.79945 z"
         style="font-style:normal;font-variant:normal;font-weight:normal;font-stretch:normal;font-family:Calibri;-inkscape-font-specification:Calibri;stroke-width:0.38982436"
         id="path44"
         inkscape:connector-curvature="0" />
      <path
         d="m 169.99136,157.56681 q 0,0.0609 -0.0304,0.1066 -0.0305,0.0457 -0.10659,0.0761 -0.0761,0.0228 -0.20558,0.0381 -0.12182,0.0228 -0.31216,0.0228 -0.18273,0 -0.31216,-0.0228 -0.12944,-0.0152 -0.20558,-0.0381 -0.0761,-0.0305 -0.10659,-0.0761 -0.0305,-0.0457 -0.0305,-0.1066 v -9.45628 q 0,-0.0609 0.0305,-0.1066 0.0381,-0.0457 0.11421,-0.0685 0.0838,-0.0305 0.20557,-0.0457 0.12943,-0.0228 0.30455,-0.0228 0.19034,0 0.31216,0.0228 0.12944,0.0152 0.20558,0.0457 0.0761,0.0228 0.10659,0.0685 0.0304,0.0457 0.0304,0.1066 z"
         style="font-style:normal;font-variant:normal;font-weight:normal;font-stretch:normal;font-family:Calibri;-inkscape-font-specification:Calibri;stroke-width:0.38982436"
         id="path46"
         inkscape:connector-curvature="0" />
      <path
         d="m 178.36649,157.57443 q 0,0.0609 -0.0305,0.10659 -0.0305,0.0381 -0.099,0.0685 -0.0685,0.0305 -0.19034,0.0457 -0.12183,0.0152 -0.30456,0.0152 -0.19034,0 -0.31216,-0.0152 -0.12182,-0.0152 -0.19034,-0.0457 -0.0685,-0.0305 -0.099,-0.0685 -0.0305,-0.0457 -0.0305,-0.10659 v -4.01245 q 0,-0.58626 -0.0914,-0.94411 -0.0914,-0.35785 -0.26648,-0.61671 -0.17512,-0.25887 -0.45683,-0.39592 -0.27409,-0.13705 -0.63955,-0.13705 -0.47206,0 -0.94411,0.33501 -0.47205,0.335 -0.98979,0.98217 v 4.78906 q 0,0.0609 -0.0305,0.10659 -0.0305,0.0381 -0.099,0.0685 -0.0685,0.0305 -0.19035,0.0457 -0.12182,0.0152 -0.31216,0.0152 -0.18273,0 -0.30455,-0.0152 -0.12182,-0.0152 -0.19796,-0.0457 -0.0685,-0.0305 -0.099,-0.0685 -0.0228,-0.0457 -0.0228,-0.10659 v -6.85238 q 0,-0.0609 0.0228,-0.099 0.0228,-0.0457 0.0914,-0.0761 0.0685,-0.0381 0.17511,-0.0457 0.1066,-0.0152 0.28171,-0.0152 0.16751,0 0.2741,0.0152 0.1142,0.008 0.17511,0.0457 0.0609,0.0305 0.0838,0.0761 0.0305,0.0381 0.0305,0.099 v 0.90603 q 0.57865,-0.64717 1.14968,-0.9441 0.57864,-0.30455 1.1649,-0.30455 0.68524,0 1.14968,0.23602 0.47205,0.22842 0.76138,0.61672 0.28932,0.3883 0.41114,0.91365 0.12943,0.51773 0.12943,1.24865 z"
         style="font-style:normal;font-variant:normal;font-weight:normal;font-stretch:normal;font-family:Calibri;-inkscape-font-specification:Calibri;stroke-width:0.38982436"
         id="path48"
         inkscape:connector-curvature="0" />
      <path
         d="m 184.0692,157.07192 q 0,0.2208 -0.0305,0.35023 -0.0305,0.12944 -0.0914,0.19035 -0.0609,0.0609 -0.18273,0.1142 -0.12182,0.0533 -0.28171,0.0838 -0.15227,0.0381 -0.32739,0.0609 -0.17512,0.0228 -0.35023,0.0228 -0.53297,0 -0.91365,-0.13704 -0.38069,-0.14466 -0.62433,-0.42637 -0.24364,-0.28933 -0.35785,-0.72331 -0.10659,-0.4416 -0.10659,-1.03547 v -4.00484 h -0.95934 q -0.1142,0 -0.18273,-0.12182 -0.0685,-0.12182 -0.0685,-0.39591 0,-0.14466 0.0152,-0.24364 0.0228,-0.099 0.0533,-0.15989 0.0305,-0.0685 0.0761,-0.0914 0.0533,-0.0305 0.11421,-0.0305 h 0.95172 v -1.62935 q 0,-0.0533 0.0228,-0.099 0.0305,-0.0457 0.099,-0.0761 0.0761,-0.0381 0.19796,-0.0533 0.12182,-0.0152 0.30455,-0.0152 0.19034,0 0.31216,0.0152 0.12182,0.0152 0.19034,0.0533 0.0685,0.0305 0.099,0.0761 0.0305,0.0457 0.0305,0.099 v 1.62935 h 1.75878 q 0.0609,0 0.10659,0.0305 0.0457,0.0228 0.0761,0.0914 0.0381,0.0609 0.0533,0.15989 0.0152,0.099 0.0152,0.24364 0,0.27409 -0.0685,0.39591 -0.0685,0.12182 -0.18273,0.12182 h -1.75878 v 3.82211 q 0,0.70808 0.20557,1.07354 0.21318,0.35784 0.75376,0.35784 0.17512,0 0.31217,-0.0305 0.13704,-0.0381 0.24364,-0.0761 0.10659,-0.0381 0.18273,-0.0685 0.0761,-0.0381 0.13704,-0.0381 0.0381,0 0.0685,0.0228 0.0381,0.0152 0.0533,0.0685 0.0228,0.0533 0.0381,0.14467 0.0152,0.0914 0.0152,0.22841 z"
         style="font-style:normal;font-variant:normal;font-weight:normal;font-stretch:normal;font-family:Calibri;-inkscape-font-specification:Calibri;stroke-width:0.38982436"
         id="path50"
         inkscape:connector-curvature="0" />
      <path
         d="m 191.43932,153.8513 q 0,0.29694 -0.15228,0.42637 -0.14466,0.12182 -0.335,0.12182 h -4.49212 q 0,0.57103 0.11421,1.02786 0.1142,0.45682 0.38069,0.78421 0.26648,0.3274 0.69285,0.50251 0.42637,0.17512 1.04308,0.17512 0.48728,0 0.86797,-0.0761 0.38069,-0.0838 0.65478,-0.18273 0.28171,-0.099 0.45683,-0.17512 0.18273,-0.0837 0.27409,-0.0837 0.0533,0 0.0914,0.0305 0.0457,0.0228 0.0685,0.0761 0.0228,0.0533 0.0305,0.15227 0.0152,0.0914 0.0152,0.22841 0,0.099 -0.008,0.17512 -0.008,0.0685 -0.0228,0.12943 -0.008,0.0533 -0.0381,0.099 -0.0228,0.0457 -0.0685,0.0914 -0.0381,0.0381 -0.24364,0.13705 -0.20557,0.0914 -0.53297,0.18273 -0.32739,0.0914 -0.76137,0.15988 -0.42637,0.0761 -0.91365,0.0761 -0.84513,0 -1.48468,-0.23602 -0.63195,-0.23603 -1.06593,-0.70047 -0.43398,-0.46444 -0.65478,-1.16491 -0.2208,-0.70046 -0.2208,-1.62934 0,-0.88319 0.22841,-1.58366 0.22841,-0.70808 0.65478,-1.19536 0.43399,-0.49489 1.04309,-0.75376 0.6091,-0.26648 1.36286,-0.26648 0.80706,0 1.37048,0.25886 0.57103,0.25887 0.93649,0.70047 0.36546,0.43398 0.53296,1.02786 0.17512,0.58626 0.17512,1.25627 z m -1.26389,-0.37307 q 0.0229,-0.98979 -0.44159,-1.55321 -0.45683,-0.56342 -1.36287,-0.56342 -0.46444,0 -0.81467,0.17512 -0.35023,0.17511 -0.58626,0.46444 -0.23602,0.28932 -0.36546,0.67762 -0.12943,0.38069 -0.14466,0.79945 z"
         style="font-style:normal;font-variant:normal;font-weight:normal;font-stretch:normal;font-family:Calibri;-inkscape-font-specification:Calibri;stroke-width:0.38982436"
         id="path52"
         inkscape:connector-curvature="0" />
      <path
         d="m 197.36282,151.17126 q 0,0.1675 -0.008,0.28171 -0.008,0.1142 -0.0305,0.18273 -0.0228,0.0609 -0.0609,0.099 -0.0305,0.0305 -0.0914,0.0305 -0.0609,0 -0.15227,-0.0305 -0.0837,-0.0381 -0.19796,-0.0685 -0.10659,-0.0381 -0.24364,-0.0685 -0.13705,-0.0305 -0.29694,-0.0305 -0.19034,0 -0.37307,0.0761 -0.18273,0.0761 -0.3883,0.25125 -0.19796,0.17512 -0.41876,0.46444 -0.2208,0.28933 -0.48728,0.70808 v 4.50735 q 0,0.0609 -0.0305,0.10659 -0.0305,0.0381 -0.099,0.0685 -0.0685,0.0305 -0.19035,0.0457 -0.12182,0.0152 -0.31216,0.0152 -0.18273,0 -0.30455,-0.0152 -0.12182,-0.0152 -0.19796,-0.0457 -0.0685,-0.0305 -0.099,-0.0685 -0.0228,-0.0457 -0.0228,-0.10659 v -6.85238 q 0,-0.0609 0.0228,-0.099 0.0228,-0.0457 0.0914,-0.0761 0.0685,-0.0381 0.17511,-0.0457 0.1066,-0.0152 0.28171,-0.0152 0.16751,0 0.2741,0.0152 0.11421,0.008 0.17512,0.0457 0.0609,0.0305 0.0838,0.0761 0.0305,0.0381 0.0305,0.099 v 0.9974 q 0.28171,-0.41115 0.52535,-0.67001 0.25125,-0.25887 0.47205,-0.40353 0.2208,-0.15228 0.43399,-0.20557 0.2208,-0.0609 0.4416,-0.0609 0.099,0 0.22079,0.0152 0.12944,0.008 0.26649,0.0381 0.13704,0.0305 0.24364,0.0685 0.1142,0.0381 0.15989,0.0761 0.0457,0.0381 0.0609,0.0761 0.0152,0.0305 0.0228,0.0838 0.0152,0.0533 0.0152,0.15989 0.008,0.099 0.008,0.2741 z"
         style="font-style:normal;font-variant:normal;font-weight:normal;font-stretch:normal;font-family:Calibri;-inkscape-font-specification:Calibri;stroke-width:0.38982436"
         id="path54"
         inkscape:connector-curvature="0" />
      <path
         d="m 204.44361,153.8513 q 0,0.29694 -0.15227,0.42637 -0.14466,0.12182 -0.33501,0.12182 h -4.49211 q 0,0.57103 0.1142,1.02786 0.11421,0.45682 0.38069,0.78421 0.26648,0.3274 0.69285,0.50251 0.42637,0.17512 1.04309,0.17512 0.48728,0 0.86797,-0.0761 0.38068,-0.0838 0.65478,-0.18273 0.28171,-0.099 0.45682,-0.17512 0.18273,-0.0837 0.2741,-0.0837 0.0533,0 0.0914,0.0305 0.0457,0.0228 0.0685,0.0761 0.0228,0.0533 0.0305,0.15227 0.0152,0.0914 0.0152,0.22841 0,0.099 -0.008,0.17512 -0.008,0.0685 -0.0228,0.12943 -0.008,0.0533 -0.0381,0.099 -0.0228,0.0457 -0.0685,0.0914 -0.0381,0.0381 -0.24364,0.13705 -0.20557,0.0914 -0.53296,0.18273 -0.32739,0.0914 -0.76138,0.15988 -0.42637,0.0761 -0.91365,0.0761 -0.84512,0 -1.48468,-0.23602 -0.63194,-0.23603 -1.06593,-0.70047 -0.43398,-0.46444 -0.65478,-1.16491 -0.2208,-0.70046 -0.2208,-1.62934 0,-0.88319 0.22842,-1.58366 0.22841,-0.70808 0.65478,-1.19536 0.43398,-0.49489 1.04308,-0.75376 0.6091,-0.26648 1.36287,-0.26648 0.80705,0 1.37047,0.25886 0.57103,0.25887 0.93649,0.70047 0.36546,0.43398 0.53297,1.02786 0.17511,0.58626 0.17511,1.25627 z m -1.26388,-0.37307 q 0.0228,-0.98979 -0.4416,-1.55321 -0.45682,-0.56342 -1.36286,-0.56342 -0.46444,0 -0.81467,0.17512 -0.35024,0.17511 -0.58626,0.46444 -0.23603,0.28932 -0.36546,0.67762 -0.12944,0.38069 -0.14466,0.79945 z"
         style="font-style:normal;font-variant:normal;font-weight:normal;font-stretch:normal;font-family:Calibri;-inkscape-font-specification:Calibri;stroke-width:0.38982436"
         id="path56"
         inkscape:connector-curvature="0" />
      <path
         d="m 210.66405,155.70906 q 0,0.52535 -0.19796,0.93649 -0.19034,0.41114 -0.54819,0.69285 -0.35784,0.28171 -0.85274,0.42637 -0.49489,0.14466 -1.08877,0.14466 -0.36546,0 -0.70046,-0.0609 -0.32739,-0.0533 -0.59387,-0.13705 -0.25887,-0.0914 -0.4416,-0.18273 -0.18273,-0.099 -0.26648,-0.17511 -0.0838,-0.0761 -0.12182,-0.21319 -0.0381,-0.13705 -0.0381,-0.37307 0,-0.14466 0.0152,-0.24364 0.0152,-0.099 0.0381,-0.15989 0.0228,-0.0609 0.0609,-0.0838 0.0457,-0.0305 0.099,-0.0305 0.0838,0 0.24364,0.1066 0.1675,0.099 0.40353,0.22079 0.24364,0.12182 0.57103,0.22842 0.32739,0.099 0.75377,0.099 0.31977,0 0.57864,-0.0685 0.25887,-0.0685 0.44921,-0.19796 0.19035,-0.13704 0.28933,-0.34261 0.10659,-0.20558 0.10659,-0.48729 0,-0.28932 -0.15228,-0.48728 -0.14466,-0.19795 -0.3883,-0.35023 -0.24364,-0.15227 -0.54819,-0.26648 -0.30455,-0.12182 -0.63194,-0.25125 -0.31978,-0.12944 -0.63194,-0.28933 -0.30455,-0.1675 -0.54819,-0.40353 -0.24364,-0.23602 -0.39592,-0.56341 -0.14466,-0.3274 -0.14466,-0.78422 0,-0.40353 0.15227,-0.76899 0.15989,-0.37307 0.47206,-0.64717 0.31216,-0.28171 0.7766,-0.44921 0.47205,-0.1675 1.09638,-0.1675 0.2741,0 0.54819,0.0457 0.2741,0.0457 0.4949,0.1142 0.2208,0.0685 0.37307,0.15228 0.15989,0.0761 0.23603,0.13705 0.0838,0.0609 0.10659,0.10659 0.0305,0.0457 0.0381,0.10659 0.0152,0.0533 0.0228,0.13705 0.0152,0.0838 0.0152,0.20557 0,0.12944 -0.0152,0.22841 -0.008,0.0914 -0.0381,0.15228 -0.0228,0.0609 -0.0609,0.0914 -0.0381,0.0229 -0.0838,0.0229 -0.0685,0 -0.19796,-0.0838 -0.12943,-0.0838 -0.335,-0.17511 -0.20557,-0.099 -0.48728,-0.18273 -0.2741,-0.0837 -0.63195,-0.0837 -0.31977,0 -0.56341,0.0761 -0.24364,0.0685 -0.40353,0.20558 -0.15228,0.12943 -0.23603,0.31216 -0.0761,0.18273 -0.0761,0.39592 0,0.29693 0.15228,0.5025 0.15227,0.19796 0.39591,0.35024 0.24364,0.15227 0.55581,0.27409 0.31216,0.12182 0.63194,0.25126 0.32739,0.12943 0.63956,0.28932 0.31977,0.15989 0.56341,0.3883 0.24364,0.22841 0.3883,0.54819 0.15228,0.31978 0.15228,0.76138 z"
         style="font-style:normal;font-variant:normal;font-weight:normal;font-stretch:normal;font-family:Calibri;-inkscape-font-specification:Calibri;stroke-width:0.38982436"
         id="path58"
         inkscape:connector-curvature="0" />
      <path
         d="m 216.75506,155.70906 q 0,0.52535 -0.19796,0.93649 -0.19034,0.41114 -0.54819,0.69285 -0.35784,0.28171 -0.85274,0.42637 -0.49489,0.14466 -1.08877,0.14466 -0.36546,0 -0.70046,-0.0609 -0.32739,-0.0533 -0.59387,-0.13705 -0.25887,-0.0914 -0.4416,-0.18273 -0.18273,-0.099 -0.26648,-0.17511 -0.0837,-0.0761 -0.12182,-0.21319 -0.0381,-0.13705 -0.0381,-0.37307 0,-0.14466 0.0152,-0.24364 0.0152,-0.099 0.0381,-0.15989 0.0229,-0.0609 0.0609,-0.0838 0.0457,-0.0305 0.099,-0.0305 0.0838,0 0.24364,0.1066 0.16751,0.099 0.40353,0.22079 0.24364,0.12182 0.57103,0.22842 0.3274,0.099 0.75377,0.099 0.31977,0 0.57864,-0.0685 0.25887,-0.0685 0.44921,-0.19796 0.19035,-0.13704 0.28933,-0.34261 0.10659,-0.20558 0.10659,-0.48729 0,-0.28932 -0.15228,-0.48728 -0.14466,-0.19795 -0.3883,-0.35023 -0.24364,-0.15227 -0.54819,-0.26648 -0.30455,-0.12182 -0.63194,-0.25125 -0.31978,-0.12944 -0.63194,-0.28933 -0.30455,-0.1675 -0.54819,-0.40353 -0.24364,-0.23602 -0.39592,-0.56341 -0.14466,-0.3274 -0.14466,-0.78422 0,-0.40353 0.15228,-0.76899 0.15988,-0.37307 0.47205,-0.64717 0.31216,-0.28171 0.7766,-0.44921 0.47205,-0.1675 1.09638,-0.1675 0.2741,0 0.54819,0.0457 0.2741,0.0457 0.4949,0.1142 0.2208,0.0685 0.37307,0.15228 0.15989,0.0761 0.23603,0.13705 0.0837,0.0609 0.10659,0.10659 0.0305,0.0457 0.0381,0.10659 0.0152,0.0533 0.0228,0.13705 0.0152,0.0838 0.0152,0.20557 0,0.12944 -0.0152,0.22841 -0.008,0.0914 -0.0381,0.15228 -0.0228,0.0609 -0.0609,0.0914 -0.0381,0.0229 -0.0837,0.0229 -0.0685,0 -0.19796,-0.0838 -0.12943,-0.0838 -0.335,-0.17511 -0.20557,-0.099 -0.48728,-0.18273 -0.2741,-0.0837 -0.63194,-0.0837 -0.31978,0 -0.56342,0.0761 -0.24364,0.0685 -0.40353,0.20558 -0.15228,0.12943 -0.23603,0.31216 -0.0761,0.18273 -0.0761,0.39592 0,0.29693 0.15228,0.5025 0.15227,0.19796 0.39591,0.35024 0.24364,0.15227 0.55581,0.27409 0.31216,0.12182 0.63194,0.25126 0.32739,0.12943 0.63956,0.28932 0.31977,0.15989 0.56341,0.3883 0.24364,0.22841 0.38831,0.54819 0.15227,0.31978 0.15227,0.76138 z"
         style="font-style:normal;font-variant:normal;font-weight:normal;font-stretch:normal;font-family:Calibri;-inkscape-font-specification:Calibri;stroke-width:0.38982436"
         id="path60"
         inkscape:connector-curvature="0" />
      <path
         d="m 224.39166,153.8513 q 0,0.29694 -0.15228,0.42637 -0.14466,0.12182 -0.335,0.12182 h -4.49212 q 0,0.57103 0.11421,1.02786 0.1142,0.45682 0.38068,0.78421 0.26649,0.3274 0.69286,0.50251 0.42637,0.17512 1.04308,0.17512 0.48728,0 0.86797,-0.0761 0.38069,-0.0838 0.65478,-0.18273 0.28171,-0.099 0.45683,-0.17512 0.18273,-0.0837 0.27409,-0.0837 0.0533,0 0.0914,0.0305 0.0457,0.0228 0.0685,0.0761 0.0228,0.0533 0.0305,0.15227 0.0152,0.0914 0.0152,0.22841 0,0.099 -0.008,0.17512 -0.008,0.0685 -0.0228,0.12943 -0.008,0.0533 -0.0381,0.099 -0.0228,0.0457 -0.0685,0.0914 -0.0381,0.0381 -0.24364,0.13705 -0.20557,0.0914 -0.53297,0.18273 -0.32739,0.0914 -0.76137,0.15988 -0.42637,0.0761 -0.91365,0.0761 -0.84513,0 -1.48469,-0.23602 -0.63194,-0.23603 -1.06592,-0.70047 -0.43399,-0.46444 -0.65478,-1.16491 -0.2208,-0.70046 -0.2208,-1.62934 0,-0.88319 0.22841,-1.58366 0.22841,-0.70808 0.65478,-1.19536 0.43399,-0.49489 1.04309,-0.75376 0.6091,-0.26648 1.36286,-0.26648 0.80706,0 1.37048,0.25886 0.57103,0.25887 0.93649,0.70047 0.36546,0.43398 0.53296,1.02786 0.17512,0.58626 0.17512,1.25627 z m -1.26389,-0.37307 q 0.0228,-0.98979 -0.44159,-1.55321 -0.45683,-0.56342 -1.36287,-0.56342 -0.46444,0 -0.81467,0.17512 -0.35023,0.17511 -0.58626,0.46444 -0.23602,0.28932 -0.36546,0.67762 -0.12943,0.38069 -0.14466,0.79945 z"
         style="font-style:normal;font-variant:normal;font-weight:normal;font-stretch:normal;font-family:Calibri;-inkscape-font-specification:Calibri;stroke-width:0.38982436"
         id="path62"
         inkscape:connector-curvature="0" />
      <path
         d="m 235.69047,153.8513 q 0,0.29694 -0.15228,0.42637 -0.14466,0.12182 -0.335,0.12182 h -4.49212 q 0,0.57103 0.11421,1.02786 0.11421,0.45682 0.38069,0.78421 0.26648,0.3274 0.69285,0.50251 0.42637,0.17512 1.04308,0.17512 0.48728,0 0.86797,-0.0761 0.38069,-0.0838 0.65479,-0.18273 0.2817,-0.099 0.45682,-0.17512 0.18273,-0.0837 0.2741,-0.0837 0.0533,0 0.0914,0.0305 0.0457,0.0228 0.0685,0.0761 0.0229,0.0533 0.0305,0.15227 0.0152,0.0914 0.0152,0.22841 0,0.099 -0.008,0.17512 -0.008,0.0685 -0.0228,0.12943 -0.008,0.0533 -0.0381,0.099 -0.0228,0.0457 -0.0685,0.0914 -0.0381,0.0381 -0.24364,0.13705 -0.20557,0.0914 -0.53296,0.18273 -0.3274,0.0914 -0.76138,0.15988 -0.42637,0.0761 -0.91365,0.0761 -0.84513,0 -1.48468,-0.23602 -0.63194,-0.23603 -1.06593,-0.70047 -0.43398,-0.46444 -0.65478,-1.16491 -0.2208,-0.70046 -0.2208,-1.62934 0,-0.88319 0.22841,-1.58366 0.22841,-0.70808 0.65479,-1.19536 0.43398,-0.49489 1.04308,-0.75376 0.6091,-0.26648 1.36286,-0.26648 0.80706,0 1.37048,0.25886 0.57103,0.25887 0.93649,0.70047 0.36546,0.43398 0.53296,1.02786 0.17512,0.58626 0.17512,1.25627 z m -1.26388,-0.37307 q 0.0228,-0.98979 -0.4416,-1.55321 -0.45683,-0.56342 -1.36286,-0.56342 -0.46444,0 -0.81468,0.17512 -0.35023,0.17511 -0.58626,0.46444 -0.23602,0.28932 -0.36546,0.67762 -0.12943,0.38069 -0.14466,0.79945 z"
         style="font-style:normal;font-variant:normal;font-weight:normal;font-stretch:normal;font-family:Calibri;-inkscape-font-specification:Calibri;stroke-width:0.38982436"
         id="path64"
         inkscape:connector-curvature="0" />
      <path
         d="m 247.77351,157.57443 q 0,0.0609 -0.0305,0.10659 -0.0305,0.0381 -0.099,0.0685 -0.0685,0.0305 -0.19034,0.0457 -0.12182,0.0152 -0.30455,0.0152 -0.19034,0 -0.31216,-0.0152 -0.12182,-0.0152 -0.19796,-0.0457 -0.0685,-0.0305 -0.099,-0.0685 -0.0305,-0.0457 -0.0305,-0.10659 v -4.16473 q 0,-0.43398 -0.0761,-0.79183 -0.0761,-0.35785 -0.24364,-0.61671 -0.16751,-0.25887 -0.42637,-0.39592 -0.25887,-0.13705 -0.60911,-0.13705 -0.43398,0 -0.87558,0.33501 -0.43398,0.335 -0.95933,0.98217 v 4.78906 q 0,0.0609 -0.0305,0.10659 -0.0304,0.0381 -0.10659,0.0685 -0.0685,0.0305 -0.19034,0.0457 -0.12182,0.0152 -0.30455,0.0152 -0.17512,0 -0.30455,-0.0152 -0.12182,-0.0152 -0.19796,-0.0457 -0.0685,-0.0305 -0.099,-0.0685 -0.0228,-0.0457 -0.0228,-0.10659 v -4.16473 q 0,-0.43398 -0.0837,-0.79183 -0.0838,-0.35785 -0.25126,-0.61671 -0.1675,-0.25887 -0.42637,-0.39592 -0.25125,-0.13705 -0.60148,-0.13705 -0.43399,0 -0.87559,0.33501 -0.44159,0.335 -0.95933,0.98217 v 4.78906 q 0,0.0609 -0.0305,0.10659 -0.0305,0.0381 -0.099,0.0685 -0.0685,0.0305 -0.19035,0.0457 -0.12182,0.0152 -0.31216,0.0152 -0.18273,0 -0.30455,-0.0152 -0.12182,-0.0152 -0.19796,-0.0457 -0.0685,-0.0305 -0.099,-0.0685 -0.0228,-0.0457 -0.0228,-0.10659 v -6.85238 q 0,-0.0609 0.0228,-0.099 0.0228,-0.0457 0.0914,-0.0761 0.0685,-0.0381 0.17511,-0.0457 0.1066,-0.0152 0.28171,-0.0152 0.16751,0 0.2741,0.0152 0.11421,0.008 0.17512,0.0457 0.0609,0.0305 0.0838,0.0761 0.0305,0.0381 0.0305,0.099 v 0.90603 q 0.57865,-0.64717 1.11922,-0.9441 0.54819,-0.30455 1.104,-0.30455 0.42637,0 0.76137,0.099 0.34262,0.099 0.60149,0.28171 0.25887,0.17512 0.4416,0.42637 0.18273,0.24364 0.30455,0.54819 0.34262,-0.37307 0.64717,-0.63194 0.31216,-0.25886 0.59387,-0.41875 0.28932,-0.15989 0.55581,-0.22842 0.27409,-0.0761 0.54819,-0.0761 0.66239,0 1.1116,0.23602 0.44922,0.22842 0.72331,0.61672 0.28171,0.3883 0.39592,0.91365 0.12182,0.51773 0.12182,1.09638 z"
         style="font-style:normal;font-variant:normal;font-weight:normal;font-stretch:normal;font-family:Calibri;-inkscape-font-specification:Calibri;stroke-width:0.38982436"
         id="path66"
         inkscape:connector-curvature="0" />
      <path
         d="m 111.24361,176.86769 q 0,0.13704 -0.0152,0.24364 -0.0152,0.099 -0.0533,0.1675 -0.0381,0.0685 -0.0914,0.099 -0.0457,0.0305 -0.10659,0.0305 h -4.72814 q -0.17512,0 -0.33501,-0.1142 -0.15227,-0.12182 -0.15227,-0.41876 v -8.78627 q 0,-0.29694 0.15227,-0.41115 0.15989,-0.12182 0.33501,-0.12182 h 4.67484 q 0.0609,0 0.1066,0.0305 0.0533,0.0305 0.0838,0.099 0.0305,0.0685 0.0457,0.17511 0.0228,0.099 0.0228,0.25126 0,0.13704 -0.0228,0.24364 -0.0152,0.099 -0.0457,0.1675 -0.0305,0.0609 -0.0838,0.0914 -0.0457,0.0305 -0.1066,0.0305 h -3.85256 v 3.09118 h 3.30437 q 0.0609,0 0.1066,0.0381 0.0533,0.0305 0.0837,0.0914 0.0381,0.0609 0.0533,0.1675 0.0152,0.10659 0.0152,0.25126 0,0.13704 -0.0152,0.23602 -0.0152,0.099 -0.0533,0.15989 -0.0305,0.0609 -0.0837,0.0914 -0.0457,0.0228 -0.1066,0.0228 h -3.30437 v 3.52517 h 3.90586 q 0.0609,0 0.10659,0.0305 0.0533,0.0305 0.0914,0.099 0.0381,0.0609 0.0533,0.1675 0.0152,0.099 0.0152,0.25126 z"
         style="font-style:normal;font-variant:normal;font-weight:normal;font-stretch:normal;font-family:Calibri;-inkscape-font-specification:Calibri;stroke-width:0.38982436"
         id="path68"
         inkscape:connector-curvature="0" />
      <path
         d="m 118.88782,177.21792 q 0,0.0609 -0.0305,0.10659 -0.0228,0.0457 -0.0914,0.0761 -0.0609,0.0228 -0.1675,0.0381 -0.10659,0.0152 -0.25887,0.0152 -0.15989,0 -0.26648,-0.0152 -0.10659,-0.0152 -0.17511,-0.0381 -0.0685,-0.0305 -0.099,-0.0761 -0.0305,-0.0457 -0.0305,-0.10659 v -0.90604 q -0.54057,0.58626 -1.12683,0.91365 -0.57865,0.3274 -1.2715,0.3274 -0.75376,0 -1.28673,-0.28933 -0.53296,-0.29693 -0.86796,-0.79183 -0.3274,-0.50251 -0.47967,-1.17252 -0.15228,-0.67762 -0.15228,-1.42377 0,-0.8832 0.19035,-1.59127 0.19034,-0.7157 0.56342,-1.21821 0.37307,-0.5025 0.92126,-0.76899 0.5558,-0.27409 1.27911,-0.27409 0.60149,0 1.09638,0.26648 0.50251,0.25887 0.98979,0.76899 v -3.98199 q 0,-0.0533 0.0228,-0.099 0.0305,-0.0533 0.10659,-0.0761 0.0761,-0.0305 0.19035,-0.0457 0.12182,-0.0228 0.30455,-0.0228 0.19034,0 0.31216,0.0228 0.12182,0.0152 0.19035,0.0457 0.0685,0.0228 0.099,0.0761 0.0381,0.0457 0.0381,0.099 z m -1.26388,-4.81951 q -0.51012,-0.63194 -0.98979,-0.95933 -0.47205,-0.33501 -0.98979,-0.33501 -0.47966,0 -0.81467,0.22842 -0.335,0.22841 -0.54819,0.60148 -0.20557,0.37308 -0.30455,0.84513 -0.0914,0.47205 -0.0914,0.95933 0,0.51774 0.0761,1.01263 0.0837,0.4949 0.28171,0.8832 0.19796,0.38069 0.52535,0.61671 0.32739,0.22842 0.82229,0.22842 0.25125,0 0.47966,-0.0685 0.23603,-0.0685 0.47967,-0.22841 0.24364,-0.15989 0.51012,-0.41114 0.26648,-0.25887 0.56342,-0.63195 z"
         style="font-style:normal;font-variant:normal;font-weight:normal;font-stretch:normal;font-family:Calibri;-inkscape-font-specification:Calibri;stroke-width:0.38982436"
         id="path70"
         inkscape:connector-curvature="0" />
      <path
         d="m 127.08023,177.21792 q 0,0.0609 -0.0305,0.10659 -0.0228,0.0381 -0.0914,0.0685 -0.0685,0.0304 -0.18273,0.0457 -0.1066,0.0152 -0.26648,0.0152 -0.17512,0 -0.28933,-0.0152 -0.10659,-0.0152 -0.17511,-0.0457 -0.0609,-0.0305 -0.0838,-0.0685 -0.0228,-0.0457 -0.0228,-0.10659 v -0.90604 q -0.58626,0.64717 -1.15729,0.94411 -0.57103,0.29694 -1.15729,0.29694 -0.68524,0 -1.15729,-0.22842 -0.46444,-0.22841 -0.75376,-0.61671 -0.28932,-0.39592 -0.41876,-0.91365 -0.12182,-0.52535 -0.12182,-1.2715 v -4.15711 q 0,-0.0609 0.0228,-0.099 0.0305,-0.0457 0.1066,-0.0761 0.0761,-0.0381 0.19795,-0.0457 0.12182,-0.0152 0.30455,-0.0152 0.18273,0 0.30455,0.0152 0.12182,0.008 0.19035,0.0457 0.0761,0.0305 0.10659,0.0761 0.0305,0.0381 0.0305,0.099 v 3.98961 q 0,0.60148 0.0837,0.96694 0.0914,0.35785 0.26648,0.61672 0.18273,0.25125 0.45682,0.39591 0.2741,0.13705 0.63956,0.13705 0.47205,0 0.93649,-0.335 0.47205,-0.33501 0.9974,-0.98218 v -4.78905 q 0,-0.0609 0.0228,-0.099 0.0305,-0.0457 0.1066,-0.0761 0.0761,-0.0381 0.19034,-0.0457 0.12182,-0.0152 0.31217,-0.0152 0.18273,0 0.30455,0.0152 0.12182,0.008 0.19034,0.0457 0.0685,0.0305 0.099,0.0761 0.0381,0.0381 0.0381,0.099 z"
         style="font-style:normal;font-variant:normal;font-weight:normal;font-stretch:normal;font-family:Calibri;-inkscape-font-specification:Calibri;stroke-width:0.38982436"
         id="path72"
         inkscape:connector-curvature="0" />
      <path
         d="m 134.32852,176.17484 q 0,0.12943 -0.008,0.22841 -0.008,0.0914 -0.0305,0.15989 -0.0152,0.0609 -0.0457,0.1142 -0.0228,0.0457 -0.12182,0.14466 -0.0914,0.0914 -0.31978,0.23603 -0.22841,0.13705 -0.51773,0.25126 -0.28171,0.10659 -0.61672,0.17511 -0.335,0.0685 -0.69285,0.0685 -0.73853,0 -1.30956,-0.24364 -0.57103,-0.24365 -0.95934,-0.70808 -0.38068,-0.47206 -0.58626,-1.14968 -0.19795,-0.68524 -0.19795,-1.57605 0,-1.01263 0.24364,-1.73594 0.25125,-0.73092 0.67762,-1.19536 0.43399,-0.46444 1.01263,-0.68523 0.58626,-0.22842 1.26388,-0.22842 0.3274,0 0.63195,0.0609 0.31216,0.0609 0.57103,0.15989 0.25887,0.099 0.45682,0.22841 0.20557,0.12944 0.29694,0.2208 0.0914,0.0914 0.12182,0.14467 0.0381,0.0533 0.0609,0.12943 0.0228,0.0685 0.0305,0.15989 0.008,0.0914 0.008,0.22841 0,0.29694 -0.0685,0.41876 -0.0685,0.1142 -0.16751,0.1142 -0.1142,0 -0.26648,-0.12182 -0.14466,-0.12943 -0.37307,-0.28171 -0.22842,-0.15227 -0.55581,-0.27409 -0.31978,-0.12943 -0.76137,-0.12943 -0.90604,0 -1.39332,0.70046 -0.47967,0.69285 -0.47967,2.01765 0,0.66239 0.12182,1.1649 0.12944,0.4949 0.37308,0.8299 0.24364,0.33501 0.59387,0.50251 0.35785,0.15989 0.81467,0.15989 0.43399,0 0.76138,-0.13705 0.32739,-0.13705 0.56342,-0.29694 0.24364,-0.1675 0.40352,-0.29693 0.16751,-0.13705 0.25887,-0.13705 0.0533,0 0.0914,0.0305 0.0381,0.0305 0.0609,0.1066 0.0305,0.0685 0.0381,0.18273 0.0152,0.10659 0.0152,0.25887 z"
         style="font-style:normal;font-variant:normal;font-weight:normal;font-stretch:normal;font-family:Calibri;-inkscape-font-specification:Calibri;stroke-width:0.38982436"
         id="path74"
         inkscape:connector-curvature="0" />
      <path
         d="m 141.05147,177.22553 q 0,0.0914 -0.0609,0.13705 -0.0609,0.0457 -0.1675,0.0685 -0.10659,0.0228 -0.31216,0.0228 -0.19796,0 -0.31978,-0.0228 -0.11421,-0.0228 -0.16751,-0.0685 -0.0533,-0.0457 -0.0533,-0.13705 v -0.68523 q -0.44921,0.47966 -1.00502,0.74614 -0.54819,0.26649 -1.1649,0.26649 -0.54058,0 -0.98218,-0.14467 -0.43398,-0.13704 -0.74615,-0.40353 -0.30455,-0.26648 -0.47966,-0.65478 -0.1675,-0.3883 -0.1675,-0.88319 0,-0.57865 0.23602,-1.00502 0.23603,-0.42637 0.67763,-0.70808 0.44159,-0.28171 1.08115,-0.41876 0.63956,-0.14466 1.439,-0.14466 h 0.94411 v -0.53296 q 0,-0.39592 -0.0838,-0.70047 -0.0838,-0.30455 -0.27409,-0.5025 -0.18273,-0.20558 -0.47967,-0.30455 -0.29693,-0.1066 -0.73092,-0.1066 -0.46444,0 -0.83751,0.11421 -0.36546,0.10659 -0.64717,0.24364 -0.2741,0.12943 -0.46444,0.24364 -0.18273,0.10659 -0.2741,0.10659 -0.0609,0 -0.10659,-0.0305 -0.0457,-0.0305 -0.0838,-0.0914 -0.0305,-0.0609 -0.0457,-0.15227 -0.0152,-0.099 -0.0152,-0.21319 0,-0.19034 0.0228,-0.29693 0.0305,-0.11421 0.12944,-0.21319 0.10659,-0.099 0.35784,-0.22841 0.25126,-0.13705 0.57865,-0.24364 0.32739,-0.11421 0.71569,-0.18273 0.3883,-0.0761 0.78422,-0.0761 0.73853,0 1.25627,0.1675 0.51773,0.1675 0.83751,0.4949 0.31978,0.31977 0.46444,0.79944 0.14466,0.47967 0.14466,1.11922 z m -1.24865,-3.12925 h -1.07354 q -0.51774,0 -0.89843,0.0914 -0.38069,0.0838 -0.63194,0.25887 -0.25125,0.16751 -0.37307,0.41115 -0.11421,0.23602 -0.11421,0.54819 0,0.53296 0.33501,0.85274 0.34261,0.31216 0.95172,0.31216 0.49489,0 0.91365,-0.25125 0.42637,-0.25126 0.89081,-0.76899 z"
         style="font-style:normal;font-variant:normal;font-weight:normal;font-stretch:normal;font-family:Calibri;-inkscape-font-specification:Calibri;stroke-width:0.38982436"
         id="path76"
         inkscape:connector-curvature="0" />
      <path
         d="m 148.27693,176.17484 q 0,0.12943 -0.008,0.22841 -0.008,0.0914 -0.0305,0.15989 -0.0152,0.0609 -0.0457,0.1142 -0.0229,0.0457 -0.12183,0.14466 -0.0914,0.0914 -0.335,0.24364 -0.23603,0.14467 -0.59387,0.28171 -0.35785,0.12944 -0.80706,0.18273 l 0.19796,0.4416 q 0.15988,0.34262 0.22841,0.56342 0.0761,0.22841 0.0761,0.42637 0,0.28932 -0.1066,0.51774 -0.10659,0.22841 -0.30455,0.38068 -0.19795,0.15989 -0.47205,0.24364 -0.27409,0.0838 -0.61671,0.0838 -0.25887,0 -0.50251,-0.0381 -0.23603,-0.0305 -0.41114,-0.0685 -0.16751,-0.0381 -0.23603,-0.0685 -0.0609,-0.0305 -0.0914,-0.0761 -0.0228,-0.0457 -0.0381,-0.11421 -0.008,-0.0685 -0.008,-0.18273 0,-0.23602 0.0457,-0.31977 0.0533,-0.0761 0.16751,-0.0761 h 0.9441 q 0.24364,0 0.38069,-0.10659 0.13705,-0.099 0.13705,-0.30455 0,-0.099 -0.0457,-0.25126 -0.0457,-0.14466 -0.12182,-0.31216 l -0.35785,-0.79183 q -0.7766,-0.14466 -1.29434,-0.6091 -0.51774,-0.47206 -0.7766,-1.22582 -0.25887,-0.75376 -0.25887,-1.76639 0,-1.01263 0.24364,-1.73594 0.25125,-0.73092 0.67762,-1.19536 0.43399,-0.46444 1.01263,-0.68523 0.58626,-0.22842 1.26389,-0.22842 0.32739,0 0.63194,0.0609 0.31216,0.0609 0.57103,0.15989 0.25887,0.099 0.45683,0.22841 0.20557,0.12944 0.29693,0.2208 0.0914,0.0914 0.12182,0.14467 0.0381,0.0533 0.0609,0.12943 0.0228,0.0685 0.0305,0.15989 0.008,0.0914 0.008,0.22841 0,0.29694 -0.0685,0.41876 -0.0685,0.1142 -0.16751,0.1142 -0.1142,0 -0.26648,-0.12182 -0.14466,-0.12943 -0.37307,-0.28171 -0.22841,-0.15227 -0.5558,-0.27409 -0.31978,-0.12943 -0.76138,-0.12943 -0.90604,0 -1.39332,0.70046 -0.47966,0.69285 -0.47966,2.01765 0,0.66239 0.12182,1.1649 0.12943,0.4949 0.37307,0.8299 0.24364,0.33501 0.59387,0.50251 0.35785,0.15989 0.81467,0.15989 0.43399,0 0.76138,-0.13705 0.32739,-0.13705 0.56342,-0.29694 0.24364,-0.1675 0.40353,-0.29693 0.1675,-0.13705 0.25886,-0.13705 0.0533,0 0.0914,0.0305 0.0381,0.0305 0.0609,0.1066 0.0305,0.0685 0.0381,0.18273 0.0152,0.10659 0.0152,0.25887 z"
         style="font-style:normal;font-variant:normal;font-weight:normal;font-stretch:normal;font-family:Calibri;-inkscape-font-specification:Calibri;stroke-width:0.38982436"
         id="path78"
         inkscape:connector-curvature="0" />
      <path
         d="m 154.99988,177.22553 q 0,0.0914 -0.0609,0.13705 -0.0609,0.0457 -0.16751,0.0685 -0.10659,0.0228 -0.31216,0.0228 -0.19796,0 -0.31978,-0.0228 -0.1142,-0.0228 -0.1675,-0.0685 -0.0533,-0.0457 -0.0533,-0.13705 v -0.68523 q -0.44921,0.47966 -1.00501,0.74614 -0.54819,0.26649 -1.16491,0.26649 -0.54057,0 -0.98217,-0.14467 -0.43399,-0.13704 -0.74615,-0.40353 -0.30455,-0.26648 -0.47967,-0.65478 -0.1675,-0.3883 -0.1675,-0.88319 0,-0.57865 0.23603,-1.00502 0.23602,-0.42637 0.67762,-0.70808 0.4416,-0.28171 1.08115,-0.41876 0.63956,-0.14466 1.439,-0.14466 h 0.94411 v -0.53296 q 0,-0.39592 -0.0837,-0.70047 -0.0838,-0.30455 -0.2741,-0.5025 -0.18273,-0.20558 -0.47966,-0.30455 -0.29694,-0.1066 -0.73092,-0.1066 -0.46444,0 -0.83752,0.11421 -0.36546,0.10659 -0.64717,0.24364 -0.27409,0.12943 -0.46444,0.24364 -0.18273,0.10659 -0.27409,0.10659 -0.0609,0 -0.10659,-0.0305 -0.0457,-0.0305 -0.0838,-0.0914 -0.0305,-0.0609 -0.0457,-0.15227 -0.0152,-0.099 -0.0152,-0.21319 0,-0.19034 0.0228,-0.29693 0.0305,-0.11421 0.12943,-0.21319 0.10659,-0.099 0.35785,-0.22841 0.25125,-0.13705 0.57864,-0.24364 0.32739,-0.11421 0.7157,-0.18273 0.3883,-0.0761 0.78421,-0.0761 0.73854,0 1.25627,0.1675 0.51774,0.1675 0.83752,0.4949 0.31977,0.31977 0.46443,0.79944 0.14467,0.47967 0.14467,1.11922 z m -1.24866,-3.12925 h -1.07354 q -0.51774,0 -0.89842,0.0914 -0.38069,0.0838 -0.63194,0.25887 -0.25126,0.16751 -0.37308,0.41115 -0.11421,0.23602 -0.11421,0.54819 0,0.53296 0.33501,0.85274 0.34262,0.31216 0.95172,0.31216 0.49489,0 0.91365,-0.25125 0.42637,-0.25126 0.89081,-0.76899 z m 1.19536,-6.69249 q 0,0.80706 -0.39592,1.23343 -0.39591,0.42637 -1.07354,0.42637 -0.2817,0 -0.5025,-0.0685 -0.2208,-0.0761 -0.40353,-0.19034 -0.18273,-0.11421 -0.33501,-0.24364 -0.15227,-0.12944 -0.30455,-0.24364 -0.14466,-0.11421 -0.28932,-0.18273 -0.14466,-0.0761 -0.31216,-0.0761 -0.30456,0 -0.42638,0.2208 -0.12182,0.2208 -0.12182,0.58626 0,0.0533 -0.0152,0.099 -0.0152,0.0381 -0.0685,0.0609 -0.0457,0.0228 -0.14466,0.0305 -0.0914,0.008 -0.23602,0.008 -0.12182,0 -0.20558,-0.008 -0.0838,-0.0152 -0.13704,-0.0457 -0.0457,-0.0381 -0.0685,-0.099 -0.0228,-0.0685 -0.0228,-0.1675 0,-0.75376 0.38069,-1.20298 0.38069,-0.44921 1.08877,-0.44921 0.41114,0 0.70808,0.15989 0.29693,0.15228 0.53296,0.34262 0.24364,0.18273 0.44921,0.34262 0.21319,0.15989 0.45683,0.15989 0.27409,0 0.41114,-0.19796 0.14466,-0.20557 0.14466,-0.60149 0,-0.12182 0.0761,-0.15988 0.0838,-0.0457 0.35023,-0.0457 0.28171,0 0.37307,0.0609 0.0914,0.0533 0.0914,0.25126 z m -6.04532,2.76379 z"
         style="font-style:normal;font-variant:normal;font-weight:normal;font-stretch:normal;font-family:Calibri;-inkscape-font-specification:Calibri;stroke-width:0.38982436"
         id="path80"
         inkscape:connector-curvature="0" />
      <path
         d="m 163.67194,173.71559 q 0,0.83752 -0.2208,1.54559 -0.2208,0.70047 -0.66239,1.21059 -0.43399,0.51012 -1.09638,0.79945 -0.65479,0.28171 -1.52276,0.28171 -0.84512,0 -1.47706,-0.25126 -0.62433,-0.25125 -1.04309,-0.73092 -0.41876,-0.47967 -0.62433,-1.1649 -0.20557,-0.68524 -0.20557,-1.55321 0,-0.83751 0.21319,-1.53798 0.2208,-0.70808 0.65478,-1.2182 0.4416,-0.51012 1.09638,-0.79183 0.65478,-0.28171 1.53037,-0.28171 0.84512,0 1.46945,0.25125 0.63194,0.25126 1.0507,0.73092 0.41876,0.47967 0.62433,1.16491 0.21318,0.68524 0.21318,1.54559 z m -1.32479,0.0838 q 0,-0.5558 -0.10659,-1.0507 -0.099,-0.49489 -0.33501,-0.86796 -0.23603,-0.37308 -0.63955,-0.58626 -0.40353,-0.2208 -1.00502,-0.2208 -0.5558,0 -0.95933,0.19796 -0.39592,0.19795 -0.65479,0.56341 -0.25886,0.35785 -0.3883,0.85274 -0.12182,0.4949 -0.12182,1.08116 0,0.56342 0.099,1.05831 0.10659,0.49489 0.34262,0.86797 0.24364,0.36546 0.64717,0.58626 0.40353,0.21318 1.00501,0.21318 0.54819,0 0.95172,-0.19795 0.40353,-0.19796 0.6624,-0.55581 0.25887,-0.35785 0.38069,-0.85274 0.12182,-0.49489 0.12182,-1.08877 z"
         style="font-style:normal;font-variant:normal;font-weight:normal;font-stretch:normal;font-family:Calibri;-inkscape-font-specification:Calibri;stroke-width:0.38982436"
         id="path82"
         inkscape:connector-curvature="0" />
      <path
         d="m 174.90224,173.49479 q 0,0.29694 -0.15228,0.42637 -0.14466,0.12182 -0.33501,0.12182 h -4.49211 q 0,0.57104 0.1142,1.02786 0.11421,0.45683 0.38069,0.78422 0.26648,0.32739 0.69285,0.50251 0.42637,0.17511 1.04309,0.17511 0.48728,0 0.86797,-0.0761 0.38069,-0.0837 0.65478,-0.18273 0.28171,-0.099 0.45683,-0.17511 0.18273,-0.0838 0.27409,-0.0838 0.0533,0 0.0914,0.0305 0.0457,0.0228 0.0685,0.0761 0.0228,0.0533 0.0305,0.15227 0.0152,0.0914 0.0152,0.22842 0,0.099 -0.008,0.17511 -0.008,0.0685 -0.0228,0.12944 -0.008,0.0533 -0.0381,0.099 -0.0228,0.0457 -0.0685,0.0914 -0.0381,0.0381 -0.24365,0.13705 -0.20557,0.0914 -0.53296,0.18273 -0.32739,0.0914 -0.76137,0.15989 -0.42637,0.0761 -0.91365,0.0761 -0.84513,0 -1.48469,-0.23603 -0.63194,-0.23603 -1.06592,-0.70047 -0.43399,-0.46444 -0.65479,-1.1649 -0.2208,-0.70047 -0.2208,-1.62935 0,-0.88319 0.22842,-1.58366 0.22841,-0.70808 0.65478,-1.19536 0.43398,-0.49489 1.04309,-0.75376 0.6091,-0.26648 1.36286,-0.26648 0.80706,0 1.37047,0.25887 0.57104,0.25887 0.9365,0.70046 0.36546,0.43399 0.53296,1.02786 0.17512,0.58626 0.17512,1.25627 z m -1.26389,-0.37307 q 0.0228,-0.98979 -0.4416,-1.55321 -0.45682,-0.56342 -1.36286,-0.56342 -0.46444,0 -0.81467,0.17512 -0.35023,0.17512 -0.58626,0.46444 -0.23603,0.28932 -0.36546,0.67762 -0.12943,0.38069 -0.14466,0.79945 z"
         style="font-style:normal;font-variant:normal;font-weight:normal;font-stretch:normal;font-family:Calibri;-inkscape-font-specification:Calibri;stroke-width:0.38982436"
         id="path84"
         inkscape:connector-curvature="0" />
      <path
         d="m 186.98527,177.21792 q 0,0.0609 -0.0305,0.10659 -0.0305,0.0381 -0.099,0.0685 -0.0685,0.0304 -0.19035,0.0457 -0.12182,0.0152 -0.30455,0.0152 -0.19034,0 -0.31216,-0.0152 -0.12182,-0.0152 -0.19796,-0.0457 -0.0685,-0.0305 -0.099,-0.0685 -0.0304,-0.0457 -0.0304,-0.10659 v -4.16473 q 0,-0.43398 -0.0761,-0.79183 -0.0761,-0.35784 -0.24364,-0.61671 -0.16751,-0.25887 -0.42637,-0.39592 -0.25887,-0.13704 -0.6091,-0.13704 -0.43399,0 -0.87559,0.335 -0.43398,0.33501 -0.95933,0.98218 v 4.78905 q 0,0.0609 -0.0305,0.10659 -0.0305,0.0381 -0.1066,0.0685 -0.0685,0.0304 -0.19034,0.0457 -0.12182,0.0152 -0.30455,0.0152 -0.17512,0 -0.30455,-0.0152 -0.12182,-0.0152 -0.19796,-0.0457 -0.0685,-0.0305 -0.099,-0.0685 -0.0228,-0.0457 -0.0228,-0.10659 v -4.16473 q 0,-0.43398 -0.0837,-0.79183 -0.0838,-0.35784 -0.25125,-0.61671 -0.16751,-0.25887 -0.42637,-0.39592 -0.25126,-0.13704 -0.60149,-0.13704 -0.43399,0 -0.87558,0.335 -0.4416,0.33501 -0.95934,0.98218 v 4.78905 q 0,0.0609 -0.0305,0.10659 -0.0305,0.0381 -0.099,0.0685 -0.0685,0.0304 -0.19034,0.0457 -0.12182,0.0152 -0.31217,0.0152 -0.18273,0 -0.30455,-0.0152 -0.12182,-0.0152 -0.19796,-0.0457 -0.0685,-0.0305 -0.099,-0.0685 -0.0228,-0.0457 -0.0228,-0.10659 v -6.85238 q 0,-0.0609 0.0228,-0.099 0.0229,-0.0457 0.0914,-0.0761 0.0685,-0.0381 0.17512,-0.0457 0.10659,-0.0152 0.2817,-0.0152 0.16751,0 0.2741,0.0152 0.11421,0.008 0.17512,0.0457 0.0609,0.0305 0.0838,0.0761 0.0305,0.0381 0.0305,0.099 v 0.90604 q 0.57865,-0.64717 1.11923,-0.94411 0.54819,-0.30455 1.10399,-0.30455 0.42637,0 0.76138,0.099 0.34261,0.099 0.60148,0.28171 0.25887,0.17511 0.4416,0.42637 0.18273,0.24364 0.30455,0.54819 0.34262,-0.37308 0.64717,-0.63194 0.31216,-0.25887 0.59387,-0.41876 0.28933,-0.15989 0.55581,-0.22841 0.27409,-0.0761 0.54819,-0.0761 0.66239,0 1.11161,0.23603 0.44921,0.22841 0.7233,0.61671 0.28171,0.3883 0.39592,0.91365 0.12182,0.51774 0.12182,1.09638 z"
         style="font-style:normal;font-variant:normal;font-weight:normal;font-stretch:normal;font-family:Calibri;-inkscape-font-specification:Calibri;stroke-width:0.38982436"
         id="path86"
         inkscape:connector-curvature="0" />
      <path
         d="m 199.53274,176.01495 q 0,0.12182 -0.008,0.21318 -0.008,0.0914 -0.0305,0.15989 -0.0152,0.0685 -0.0457,0.12182 -0.0305,0.0533 -0.10659,0.12943 -0.0761,0.0761 -0.31978,0.23603 -0.24364,0.15228 -0.6091,0.30455 -0.35785,0.14466 -0.8299,0.24364 -0.46444,0.10659 -1.02024,0.10659 -0.95934,0 -1.73594,-0.31977 -0.76899,-0.31978 -1.31718,-0.94411 -0.54058,-0.62433 -0.83751,-1.53798 -0.28933,-0.92126 -0.28933,-2.11662 0,-1.22582 0.31217,-2.18515 0.31978,-0.95933 0.89081,-1.62173 0.57103,-0.67001 1.36286,-1.02025 0.79944,-0.35023 1.76639,-0.35023 0.42637,0 0.8299,0.0838 0.40353,0.0761 0.74615,0.19796 0.34262,0.12182 0.6091,0.28171 0.26648,0.15989 0.36546,0.26648 0.10659,0.099 0.13705,0.15228 0.0305,0.0533 0.0457,0.12943 0.0228,0.0685 0.0305,0.1675 0.0152,0.099 0.0152,0.23603 0,0.15227 -0.0152,0.25887 -0.0152,0.10659 -0.0457,0.18273 -0.0305,0.0685 -0.0761,0.10659 -0.0381,0.0305 -0.099,0.0305 -0.1066,0 -0.29694,-0.14467 -0.19034,-0.15227 -0.49489,-0.32739 -0.29694,-0.18273 -0.73092,-0.32739 -0.42637,-0.15227 -1.02786,-0.15227 -0.65478,0 -1.19536,0.26648 -0.53296,0.25886 -0.91365,0.76899 -0.38069,0.51012 -0.59388,1.24865 -0.20557,0.73092 -0.20557,1.67503 0,0.93649 0.19796,1.6598 0.20557,0.71569 0.57865,1.20297 0.38068,0.47967 0.92887,0.73092 0.5482,0.24364 1.24105,0.24364 0.58626,0 1.02024,-0.14466 0.4416,-0.14466 0.74615,-0.31978 0.31216,-0.18273 0.51012,-0.32739 0.19796,-0.14466 0.31216,-0.14466 0.0533,0 0.0914,0.0228 0.0381,0.0228 0.0609,0.0914 0.0228,0.0609 0.0304,0.17511 0.0152,0.11421 0.0152,0.28933 z"
         style="font-style:normal;font-variant:normal;font-weight:normal;font-stretch:normal;font-family:Calibri;-inkscape-font-specification:Calibri;stroke-width:0.38982436"
         id="path88"
         inkscape:connector-curvature="0" />
      <path
         d="m 207.49673,173.71559 q 0,0.83752 -0.2208,1.54559 -0.22079,0.70047 -0.66239,1.21059 -0.43399,0.51012 -1.09638,0.79945 -0.65479,0.28171 -1.52275,0.28171 -0.84513,0 -1.47707,-0.25126 -0.62433,-0.25125 -1.04309,-0.73092 -0.41875,-0.47967 -0.62433,-1.1649 -0.20557,-0.68524 -0.20557,-1.55321 0,-0.83751 0.21319,-1.53798 0.2208,-0.70808 0.65478,-1.2182 0.4416,-0.51012 1.09638,-0.79183 0.65478,-0.28171 1.53037,-0.28171 0.84512,0 1.46945,0.25125 0.63194,0.25126 1.0507,0.73092 0.41876,0.47967 0.62433,1.16491 0.21318,0.68524 0.21318,1.54559 z m -1.32479,0.0838 q 0,-0.5558 -0.10659,-1.0507 -0.099,-0.49489 -0.33501,-0.86796 -0.23602,-0.37308 -0.63955,-0.58626 -0.40353,-0.2208 -1.00502,-0.2208 -0.5558,0 -0.95933,0.19796 -0.39592,0.19795 -0.65479,0.56341 -0.25886,0.35785 -0.3883,0.85274 -0.12182,0.4949 -0.12182,1.08116 0,0.56342 0.099,1.05831 0.10659,0.49489 0.34262,0.86797 0.24364,0.36546 0.64717,0.58626 0.40353,0.21318 1.00502,0.21318 0.54819,0 0.95172,-0.19795 0.40352,-0.19796 0.66239,-0.55581 0.25887,-0.35785 0.38069,-0.85274 0.12182,-0.49489 0.12182,-1.08877 z"
         style="font-style:normal;font-variant:normal;font-weight:normal;font-stretch:normal;font-family:Calibri;-inkscape-font-specification:Calibri;stroke-width:0.38982436"
         id="path90"
         inkscape:connector-curvature="0" />
      <path
         d="m 219.51124,177.21792 q 0,0.0609 -0.0305,0.10659 -0.0305,0.0381 -0.099,0.0685 -0.0685,0.0304 -0.19035,0.0457 -0.12182,0.0152 -0.30455,0.0152 -0.19034,0 -0.31216,-0.0152 -0.12182,-0.0152 -0.19796,-0.0457 -0.0685,-0.0305 -0.099,-0.0685 -0.0305,-0.0457 -0.0305,-0.10659 v -4.16473 q 0,-0.43398 -0.0761,-0.79183 -0.0761,-0.35784 -0.24364,-0.61671 -0.1675,-0.25887 -0.42637,-0.39592 -0.25887,-0.13704 -0.6091,-0.13704 -0.43399,0 -0.87559,0.335 -0.43398,0.33501 -0.95933,0.98218 v 4.78905 q 0,0.0609 -0.0305,0.10659 -0.0305,0.0381 -0.1066,0.0685 -0.0685,0.0304 -0.19034,0.0457 -0.12182,0.0152 -0.30455,0.0152 -0.17512,0 -0.30455,-0.0152 -0.12182,-0.0152 -0.19796,-0.0457 -0.0685,-0.0305 -0.099,-0.0685 -0.0228,-0.0457 -0.0228,-0.10659 v -4.16473 q 0,-0.43398 -0.0837,-0.79183 -0.0838,-0.35784 -0.25125,-0.61671 -0.16751,-0.25887 -0.42637,-0.39592 -0.25126,-0.13704 -0.60149,-0.13704 -0.43399,0 -0.87558,0.335 -0.4416,0.33501 -0.95934,0.98218 v 4.78905 q 0,0.0609 -0.0305,0.10659 -0.0305,0.0381 -0.099,0.0685 -0.0685,0.0304 -0.19034,0.0457 -0.12182,0.0152 -0.31217,0.0152 -0.18273,0 -0.30455,-0.0152 -0.12182,-0.0152 -0.19796,-0.0457 -0.0685,-0.0305 -0.099,-0.0685 -0.0228,-0.0457 -0.0228,-0.10659 v -6.85238 q 0,-0.0609 0.0228,-0.099 0.0229,-0.0457 0.0914,-0.0761 0.0685,-0.0381 0.17512,-0.0457 0.10659,-0.0152 0.28171,-0.0152 0.1675,0 0.27409,0.0152 0.11421,0.008 0.17512,0.0457 0.0609,0.0305 0.0838,0.0761 0.0305,0.0381 0.0305,0.099 v 0.90604 q 0.57865,-0.64717 1.11923,-0.94411 0.54819,-0.30455 1.10399,-0.30455 0.42637,0 0.76138,0.099 0.34262,0.099 0.60148,0.28171 0.25887,0.17511 0.4416,0.42637 0.18273,0.24364 0.30455,0.54819 0.34262,-0.37308 0.64717,-0.63194 0.31216,-0.25887 0.59387,-0.41876 0.28933,-0.15989 0.55581,-0.22841 0.27409,-0.0761 0.54819,-0.0761 0.6624,0 1.11161,0.23603 0.44921,0.22841 0.7233,0.61671 0.28171,0.3883 0.39592,0.91365 0.12182,0.51774 0.12182,1.09638 z"
         style="font-style:normal;font-variant:normal;font-weight:normal;font-stretch:normal;font-family:Calibri;-inkscape-font-specification:Calibri;stroke-width:0.38982436"
         id="path92"
         inkscape:connector-curvature="0" />
      <path
         d="m 228.10717,173.68514 q 0,0.89842 -0.19796,1.61411 -0.19034,0.7157 -0.57103,1.2182 -0.37307,0.4949 -0.92888,0.76899 -0.5558,0.26649 -1.27149,0.26649 -0.30455,0 -0.56342,-0.0609 -0.25887,-0.0609 -0.51012,-0.19035 -0.24364,-0.12943 -0.48728,-0.32739 -0.24364,-0.19796 -0.51774,-0.46444 v 3.42619 q 0,0.0609 -0.0305,0.10659 -0.0305,0.0457 -0.099,0.0761 -0.0685,0.0305 -0.19035,0.0457 -0.12182,0.0152 -0.31216,0.0152 -0.18273,0 -0.30455,-0.0152 -0.12182,-0.0152 -0.19796,-0.0457 -0.0685,-0.0305 -0.099,-0.0761 -0.0228,-0.0457 -0.0228,-0.10659 v -9.57049 q 0,-0.0685 0.0228,-0.10659 0.0228,-0.0457 0.0914,-0.0761 0.0685,-0.0305 0.17511,-0.0381 0.1066,-0.0152 0.25887,-0.0152 0.15989,0 0.25887,0.0152 0.10659,0.008 0.17512,0.0381 0.0685,0.0305 0.0914,0.0761 0.0305,0.0381 0.0305,0.10659 v 0.92126 q 0.31216,-0.31977 0.60148,-0.5558 0.28933,-0.23603 0.57865,-0.3883 0.29694,-0.15989 0.60149,-0.23603 0.31216,-0.0838 0.65478,-0.0838 0.74615,0 1.2715,0.28932 0.52535,0.28933 0.85274,0.79183 0.335,0.50251 0.48728,1.17252 0.15227,0.6624 0.15227,1.40855 z m -1.32479,0.14466 q 0,-0.52535 -0.0837,-1.01263 -0.0761,-0.4949 -0.2741,-0.87558 -0.19034,-0.38069 -0.51773,-0.6091 -0.32739,-0.22842 -0.81468,-0.22842 -0.24364,0 -0.47966,0.0761 -0.23603,0.0685 -0.47967,0.22841 -0.24364,0.15228 -0.51012,0.41115 -0.26648,0.25125 -0.56342,0.62432 v 2.72573 q 0.51774,0.63194 0.98218,0.96695 0.46444,0.335 0.97456,0.335 0.47205,0 0.80706,-0.22841 0.34261,-0.22841 0.54819,-0.6091 0.21318,-0.38069 0.31216,-0.85274 0.099,-0.47206 0.099,-0.95172 z"
         style="font-style:normal;font-variant:normal;font-weight:normal;font-stretch:normal;font-family:Calibri;-inkscape-font-specification:Calibri;stroke-width:0.38982436"
         id="path94"
         inkscape:connector-curvature="0" />
      <path
         d="m 235.86559,177.21792 q 0,0.0609 -0.0305,0.10659 -0.0228,0.0381 -0.0914,0.0685 -0.0685,0.0304 -0.18273,0.0457 -0.10659,0.0152 -0.26648,0.0152 -0.17511,0 -0.28932,-0.0152 -0.10659,-0.0152 -0.17512,-0.0457 -0.0609,-0.0305 -0.0837,-0.0685 -0.0228,-0.0457 -0.0228,-0.10659 v -0.90604 q -0.58626,0.64717 -1.15729,0.94411 -0.57103,0.29694 -1.15729,0.29694 -0.68524,0 -1.15729,-0.22842 -0.46444,-0.22841 -0.75376,-0.61671 -0.28933,-0.39592 -0.41876,-0.91365 -0.12182,-0.52535 -0.12182,-1.2715 v -4.15711 q 0,-0.0609 0.0228,-0.099 0.0305,-0.0457 0.10659,-0.0761 0.0761,-0.0381 0.19796,-0.0457 0.12182,-0.0152 0.30455,-0.0152 0.18273,0 0.30455,0.0152 0.12182,0.008 0.19034,0.0457 0.0761,0.0305 0.1066,0.0761 0.0305,0.0381 0.0305,0.099 v 3.98961 q 0,0.60148 0.0837,0.96694 0.0914,0.35785 0.26649,0.61672 0.18273,0.25125 0.45682,0.39591 0.2741,0.13705 0.63956,0.13705 0.47205,0 0.93649,-0.335 0.47205,-0.33501 0.9974,-0.98218 v -4.78905 q 0,-0.0609 0.0228,-0.099 0.0305,-0.0457 0.10659,-0.0761 0.0761,-0.0381 0.19035,-0.0457 0.12182,-0.0152 0.31216,-0.0152 0.18273,0 0.30455,0.0152 0.12182,0.008 0.19035,0.0457 0.0685,0.0305 0.099,0.0761 0.0381,0.0381 0.0381,0.099 z"
         style="font-style:normal;font-variant:normal;font-weight:normal;font-stretch:normal;font-family:Calibri;-inkscape-font-specification:Calibri;stroke-width:0.38982436"
         id="path96"
         inkscape:connector-curvature="0" />
      <path
         d="m 241.75102,176.71541 q 0,0.2208 -0.0305,0.35023 -0.0305,0.12944 -0.0914,0.19035 -0.0609,0.0609 -0.18273,0.11421 -0.12182,0.0533 -0.28171,0.0837 -0.15227,0.0381 -0.32739,0.0609 -0.17511,0.0228 -0.35023,0.0228 -0.53296,0 -0.91365,-0.13705 -0.38069,-0.14466 -0.62433,-0.42637 -0.24364,-0.28932 -0.35785,-0.72331 -0.10659,-0.4416 -0.10659,-1.03547 v -4.00483 h -0.95933 q -0.11421,0 -0.18273,-0.12182 -0.0685,-0.12182 -0.0685,-0.39592 0,-0.14466 0.0152,-0.24364 0.0228,-0.099 0.0533,-0.15989 0.0305,-0.0685 0.0761,-0.0914 0.0533,-0.0305 0.1142,-0.0305 h 0.95172 v -1.62934 q 0,-0.0533 0.0228,-0.099 0.0305,-0.0457 0.099,-0.0761 0.0761,-0.0381 0.19796,-0.0533 0.12182,-0.0152 0.30455,-0.0152 0.19034,0 0.31216,0.0152 0.12182,0.0152 0.19035,0.0533 0.0685,0.0305 0.099,0.0761 0.0305,0.0457 0.0305,0.099 v 1.62934 h 1.75878 q 0.0609,0 0.10659,0.0305 0.0457,0.0228 0.0761,0.0914 0.0381,0.0609 0.0533,0.15989 0.0152,0.099 0.0152,0.24364 0,0.2741 -0.0685,0.39592 -0.0685,0.12182 -0.18273,0.12182 h -1.75878 v 3.8221 q 0,0.70808 0.20557,1.07354 0.21319,0.35785 0.75377,0.35785 0.17511,0 0.31216,-0.0305 0.13705,-0.0381 0.24364,-0.0761 0.10659,-0.0381 0.18273,-0.0685 0.0761,-0.0381 0.13705,-0.0381 0.0381,0 0.0685,0.0228 0.0381,0.0152 0.0533,0.0685 0.0228,0.0533 0.0381,0.14466 0.0152,0.0914 0.0152,0.22841 z"
         style="font-style:normal;font-variant:normal;font-weight:normal;font-stretch:normal;font-family:Calibri;-inkscape-font-specification:Calibri;stroke-width:0.38982436"
         id="path98"
         inkscape:connector-curvature="0" />
      <path
         d="m 248.40545,177.22553 q 0,0.0914 -0.0609,0.13705 -0.0609,0.0457 -0.1675,0.0685 -0.10659,0.0228 -0.31216,0.0228 -0.19796,0 -0.31978,-0.0228 -0.11421,-0.0228 -0.1675,-0.0685 -0.0533,-0.0457 -0.0533,-0.13705 v -0.68523 q -0.44921,0.47966 -1.00501,0.74614 -0.5482,0.26649 -1.16491,0.26649 -0.54058,0 -0.98217,-0.14467 -0.43399,-0.13704 -0.74615,-0.40353 -0.30455,-0.26648 -0.47967,-0.65478 -0.1675,-0.3883 -0.1675,-0.88319 0,-0.57865 0.23602,-1.00502 0.23603,-0.42637 0.67763,-0.70808 0.4416,-0.28171 1.08115,-0.41876 0.63956,-0.14466 1.439,-0.14466 h 0.94411 v -0.53296 q 0,-0.39592 -0.0838,-0.70047 -0.0838,-0.30455 -0.2741,-0.5025 -0.18273,-0.20558 -0.47966,-0.30455 -0.29694,-0.1066 -0.73093,-0.1066 -0.46443,0 -0.83751,0.11421 -0.36546,0.10659 -0.64717,0.24364 -0.27409,0.12943 -0.46444,0.24364 -0.18273,0.10659 -0.27409,0.10659 -0.0609,0 -0.1066,-0.0305 -0.0457,-0.0305 -0.0838,-0.0914 -0.0305,-0.0609 -0.0457,-0.15227 -0.0152,-0.099 -0.0152,-0.21319 0,-0.19034 0.0228,-0.29693 0.0305,-0.11421 0.12944,-0.21319 0.10659,-0.099 0.35785,-0.22841 0.25125,-0.13705 0.57864,-0.24364 0.32739,-0.11421 0.71569,-0.18273 0.38831,-0.0761 0.78422,-0.0761 0.73854,0 1.25627,0.1675 0.51774,0.1675 0.83751,0.4949 0.31978,0.31977 0.46444,0.79944 0.14466,0.47967 0.14466,1.11922 z m -1.24865,-3.12925 h -1.07354 q -0.51774,0 -0.89842,0.0914 -0.38069,0.0838 -0.63195,0.25887 -0.25125,0.16751 -0.37307,0.41115 -0.11421,0.23602 -0.11421,0.54819 0,0.53296 0.33501,0.85274 0.34262,0.31216 0.95172,0.31216 0.49489,0 0.91365,-0.25125 0.42637,-0.25126 0.89081,-0.76899 z"
         style="font-style:normal;font-variant:normal;font-weight:normal;font-stretch:normal;font-family:Calibri;-inkscape-font-specification:Calibri;stroke-width:0.38982436"
         id="path100"
         inkscape:connector-curvature="0" />
      <path
         d="m 255.6309,176.17484 q 0,0.12943 -0.008,0.22841 -0.008,0.0914 -0.0305,0.15989 -0.0152,0.0609 -0.0457,0.1142 -0.0228,0.0457 -0.12182,0.14466 -0.0914,0.0914 -0.33501,0.24364 -0.23602,0.14467 -0.59387,0.28171 -0.35785,0.12944 -0.80706,0.18273 l 0.19796,0.4416 q 0.15989,0.34262 0.22841,0.56342 0.0761,0.22841 0.0761,0.42637 0,0.28932 -0.10659,0.51774 -0.1066,0.22841 -0.30455,0.38068 -0.19796,0.15989 -0.47206,0.24364 -0.27409,0.0838 -0.61671,0.0838 -0.25887,0 -0.50251,-0.0381 -0.23602,-0.0305 -0.41114,-0.0685 -0.1675,-0.0381 -0.23603,-0.0685 -0.0609,-0.0305 -0.0914,-0.0761 -0.0228,-0.0457 -0.0381,-0.11421 -0.008,-0.0685 -0.008,-0.18273 0,-0.23602 0.0457,-0.31977 0.0533,-0.0761 0.1675,-0.0761 h 0.94411 q 0.24364,0 0.38068,-0.10659 0.13705,-0.099 0.13705,-0.30455 0,-0.099 -0.0457,-0.25126 -0.0457,-0.14466 -0.12182,-0.31216 l -0.35785,-0.79183 q -0.7766,-0.14466 -1.29434,-0.6091 -0.51773,-0.47206 -0.7766,-1.22582 -0.25887,-0.75376 -0.25887,-1.76639 0,-1.01263 0.24364,-1.73594 0.25126,-0.73092 0.67763,-1.19536 0.43398,-0.46444 1.01263,-0.68523 0.58626,-0.22842 1.26388,-0.22842 0.32739,0 0.63194,0.0609 0.31217,0.0609 0.57103,0.15989 0.25887,0.099 0.45683,0.22841 0.20557,0.12944 0.29694,0.2208 0.0914,0.0914 0.12182,0.14467 0.0381,0.0533 0.0609,0.12943 0.0228,0.0685 0.0305,0.15989 0.008,0.0914 0.008,0.22841 0,0.29694 -0.0685,0.41876 -0.0685,0.1142 -0.1675,0.1142 -0.11421,0 -0.26648,-0.12182 -0.14466,-0.12943 -0.37308,-0.28171 -0.22841,-0.15227 -0.5558,-0.27409 -0.31978,-0.12943 -0.76138,-0.12943 -0.90603,0 -1.39331,0.70046 -0.47967,0.69285 -0.47967,2.01765 0,0.66239 0.12182,1.1649 0.12943,0.4949 0.37307,0.8299 0.24364,0.33501 0.59388,0.50251 0.35784,0.15989 0.81467,0.15989 0.43398,0 0.76137,-0.13705 0.3274,-0.13705 0.56342,-0.29694 0.24364,-0.1675 0.40353,-0.29693 0.1675,-0.13705 0.25887,-0.13705 0.0533,0 0.0914,0.0305 0.0381,0.0305 0.0609,0.1066 0.0305,0.0685 0.0381,0.18273 0.0152,0.10659 0.0152,0.25887 z"
         style="font-style:normal;font-variant:normal;font-weight:normal;font-stretch:normal;font-family:Calibri;-inkscape-font-specification:Calibri;stroke-width:0.38982436"
         id="path102"
         inkscape:connector-curvature="0" />
      <path
         d="m 262.35385,177.22553 q 0,0.0914 -0.0609,0.13705 -0.0609,0.0457 -0.1675,0.0685 -0.1066,0.0228 -0.31217,0.0228 -0.19795,0 -0.31978,-0.0228 -0.1142,-0.0228 -0.1675,-0.0685 -0.0533,-0.0457 -0.0533,-0.13705 v -0.68523 q -0.44922,0.47966 -1.00502,0.74614 -0.54819,0.26649 -1.1649,0.26649 -0.54058,0 -0.98218,-0.14467 -0.43398,-0.13704 -0.74615,-0.40353 -0.30455,-0.26648 -0.47966,-0.65478 -0.16751,-0.3883 -0.16751,-0.88319 0,-0.57865 0.23603,-1.00502 0.23603,-0.42637 0.67762,-0.70808 0.4416,-0.28171 1.08116,-0.41876 0.63955,-0.14466 1.439,-0.14466 h 0.9441 v -0.53296 q 0,-0.39592 -0.0838,-0.70047 -0.0838,-0.30455 -0.27409,-0.5025 -0.18273,-0.20558 -0.47967,-0.30455 -0.29694,-0.1066 -0.73092,-0.1066 -0.46444,0 -0.83751,0.11421 -0.36546,0.10659 -0.64717,0.24364 -0.2741,0.12943 -0.46444,0.24364 -0.18273,0.10659 -0.2741,0.10659 -0.0609,0 -0.10659,-0.0305 -0.0457,-0.0305 -0.0838,-0.0914 -0.0305,-0.0609 -0.0457,-0.15227 -0.0152,-0.099 -0.0152,-0.21319 0,-0.19034 0.0228,-0.29693 0.0305,-0.11421 0.12943,-0.21319 0.1066,-0.099 0.35785,-0.22841 0.25125,-0.13705 0.57865,-0.24364 0.32739,-0.11421 0.71569,-0.18273 0.3883,-0.0761 0.78422,-0.0761 0.73853,0 1.25627,0.1675 0.51773,0.1675 0.83751,0.4949 0.31978,0.31977 0.46444,0.79944 0.14466,0.47967 0.14466,1.11922 z m -1.24866,-3.12925 h -1.07354 q -0.51773,0 -0.89842,0.0914 -0.38069,0.0838 -0.63194,0.25887 -0.25126,0.16751 -0.37308,0.41115 -0.1142,0.23602 -0.1142,0.54819 0,0.53296 0.335,0.85274 0.34262,0.31216 0.95172,0.31216 0.4949,0 0.91365,-0.25125 0.42637,-0.25126 0.89081,-0.76899 z m 1.19536,-6.69249 q 0,0.80706 -0.39591,1.23343 -0.39592,0.42637 -1.07354,0.42637 -0.28171,0 -0.50251,-0.0685 -0.2208,-0.0761 -0.40353,-0.19034 -0.18273,-0.11421 -0.335,-0.24364 -0.15228,-0.12944 -0.30455,-0.24364 -0.14467,-0.11421 -0.28933,-0.18273 -0.14466,-0.0761 -0.31216,-0.0761 -0.30455,0 -0.42637,0.2208 -0.12182,0.2208 -0.12182,0.58626 0,0.0533 -0.0152,0.099 -0.0152,0.0381 -0.0685,0.0609 -0.0457,0.0228 -0.14466,0.0305 -0.0914,0.008 -0.23603,0.008 -0.12182,0 -0.20557,-0.008 -0.0838,-0.0152 -0.13705,-0.0457 -0.0457,-0.0381 -0.0685,-0.099 -0.0229,-0.0685 -0.0229,-0.1675 0,-0.75376 0.38069,-1.20298 0.38069,-0.44921 1.08877,-0.44921 0.41114,0 0.70808,0.15989 0.29694,0.15228 0.53296,0.34262 0.24364,0.18273 0.44921,0.34262 0.21319,0.15989 0.45683,0.15989 0.27409,0 0.41114,-0.19796 0.14466,-0.20557 0.14466,-0.60149 0,-0.12182 0.0761,-0.15988 0.0838,-0.0457 0.35023,-0.0457 0.28171,0 0.37308,0.0609 0.0914,0.0533 0.0914,0.25126 z m -6.04532,2.76379 z"
         style="font-style:normal;font-variant:normal;font-weight:normal;font-stretch:normal;font-family:Calibri;-inkscape-font-specification:Calibri;stroke-width:0.38982436"
         id="path104"
         inkscape:connector-curvature="0" />
      <path
         d="m 271.02592,173.71559 q 0,0.83752 -0.2208,1.54559 -0.22079,0.70047 -0.66239,1.21059 -0.43399,0.51012 -1.09638,0.79945 -0.65479,0.28171 -1.52275,0.28171 -0.84513,0 -1.47707,-0.25126 -0.62433,-0.25125 -1.04309,-0.73092 -0.41875,-0.47967 -0.62433,-1.1649 -0.20557,-0.68524 -0.20557,-1.55321 0,-0.83751 0.21319,-1.53798 0.2208,-0.70808 0.65478,-1.2182 0.4416,-0.51012 1.09638,-0.79183 0.65478,-0.28171 1.53037,-0.28171 0.84512,0 1.46945,0.25125 0.63194,0.25126 1.0507,0.73092 0.41876,0.47967 0.62433,1.16491 0.21318,0.68524 0.21318,1.54559 z m -1.32479,0.0838 q 0,-0.5558 -0.10659,-1.0507 -0.099,-0.49489 -0.33501,-0.86796 -0.23602,-0.37308 -0.63955,-0.58626 -0.40353,-0.2208 -1.00502,-0.2208 -0.5558,0 -0.95933,0.19796 -0.39592,0.19795 -0.65479,0.56341 -0.25886,0.35785 -0.3883,0.85274 -0.12182,0.4949 -0.12182,1.08116 0,0.56342 0.099,1.05831 0.10659,0.49489 0.34262,0.86797 0.24364,0.36546 0.64717,0.58626 0.40353,0.21318 1.00502,0.21318 0.54819,0 0.95172,-0.19795 0.40352,-0.19796 0.66239,-0.55581 0.25887,-0.35785 0.38069,-0.85274 0.12182,-0.49489 0.12182,-1.08877 z"
         style="font-style:normal;font-variant:normal;font-weight:normal;font-stretch:normal;font-family:Calibri;-inkscape-font-specification:Calibri;stroke-width:0.38982436"
         id="path106"
         inkscape:connector-curvature="0" />
    </g>
  </g>
</svg>
