<?xml version="1.0" encoding="UTF-8" standalone="no"?>
<svg
   id="Camada_1"
   data-name="Camada 1"
   viewBox="0 0 1979.9999 550"
   version="1.1"
   sodipodi:docname="principal.svg"
   width="1980"
   height="550"
   inkscape:version="1.1.2 (0a00cf5339, 2022-02-04)"
   inkscape:export-filename="/home/hudson/Github/educompbrasil-site-2026/public/img/simposio/2026/educomp/cards/principal.png"
   inkscape:export-xdpi="109.84039"
   inkscape:export-ydpi="109.84039"
   xmlns:inkscape="http://www.inkscape.org/namespaces/inkscape"
   xmlns:sodipodi="http://sodipodi.sourceforge.net/DTD/sodipodi-0.dtd"
   xmlns="http://www.w3.org/2000/svg"
   xmlns:svg="http://www.w3.org/2000/svg">
  <sodipodi:namedview
     id="namedview47"
     pagecolor="#ffffff"
     bordercolor="#666666"
     borderopacity="1.0"
     inkscape:pageshadow="2"
     inkscape:pageopacity="0.0"
     inkscape:pagecheckerboard="0"
     showgrid="false"
     showguides="true"
     inkscape:snap-others="true"
     width="1980px"
     lock-margins="false"
     inkscape:zoom="0.42061157"
     inkscape:cx="652.62113"
     inkscape:cy="35.662357"
     inkscape:window-width="1920"
     inkscape:window-height="996"
     inkscape:window-x="1600"
     inkscape:window-y="0"
     inkscape:window-maximized="1"
     inkscape:current-layer="g85578" />
  <defs
     id="defs4">
    <style
       id="style2">.cls-1{fill:#fbb924;}.cls-2{fill:#17678d;}.cls-3{fill:#66b552;}.cls-4{fill:#098036;}</style>
  </defs>
  <g
     id="g85556"
     transform="translate(-11.520611)">
    <path
       class="cls-2"
       d="m 364.86618,456.70367 q 20.58533,-1.04577 41.17081,-1.04577 a 196.86415,196.86415 0 0 1 -5.5042,-20.97072 c -10.25605,-50.39941 2.51363,-95.82679 34.56591,-135.87844 3.54104,-4.40332 6.07294,-8.10942 4.53182,-14.67769 -2.88049,-12.27419 5.10042,-23.00723 17.22792,-25.33729 9.26524,-1.83471 20.27352,5.74262 22.60351,15.44823 2.89889,12.01734 -2.71538,22.73203 -13.61358,26.14459 a 12.292542,12.292542 0 0 1 -8.14602,0 c -3.66937,-1.35767 -6.21965,0 -8.67812,2.80711 -21.79638,24.91531 -34.85947,53.55511 -37.86844,86.72663 a 150.84966,150.84966 0 0 0 8.93505,65.79261 c 11.32009,0.14672 22.65855,0.49538 33.97878,0.95406 a 13.044772,13.044772 0 0 0 -4.77021,-2.42183 c -9.17358,-3.24743 -14.10889,-10.10924 -13.85212,-19.136 a 20.640461,20.640461 0 0 1 15.08127,-19.0626 19.943274,19.943274 0 0 1 22.01653,9.30197 c 4.73359,7.98097 3.26574,16.34725 -0.77047,23.85118 a 10.512876,10.512876 0 0 0 -1.22932,8.32959 q 22.01652,1.15585 44.12475,2.7337 a 74.58087,74.58087 0 0 1 -27.19039,-58.14188 c 0,-43.50092 37.11619,-72.96634 73.847,-72.98467 39.83143,0 72.03056,31.96061 72.48923,72.65442 a 73.38831,73.38831 0 0 1 -31.18995,61.37098 c 15.44826,-0.40364 30.85974,-1.74297 46.27122,-3.30249 a 109.64214,109.64214 0 0 0 -0.5137,-115.77004 c -1.57776,-2.51355 -2.3484,-4.07306 0.86229,-6.20132 8.86178,-5.90776 13.39346,-14.1823 11.2652,-25.08044 -2.20167,-11.33851 -9.57721,-18.18198 -20.47541,-20.87899 a 24.67682,24.67682 0 0 0 -27.35547,9.96247 c -3.41261,4.67851 -5.66917,5.21056 -11.00827,2.84379 -32.62102,-14.67766 -64.54496,-11.94394 -94.68926,6.62329 -27.72233,17.08114 -44.54661,41.99646 -49.28019,74.58088 -0.60553,4.29323 -2.45847,7.70578 -7.33888,7.15536 -4.8803,-0.55041 -5.77924,-4.3666 -5.50406,-8.25619 a 95.533233,95.533233 0 0 1 16.23715,-45.40901 c 23.24567,-35.1897 56.21543,-53.92207 98.24856,-56.58239 4.55006,-0.2752 6.27468,-1.83469 6.03615,-6.27471 q -0.44029,-8.54973 -0.18334,-17.15451 c 0.11067,-4.3666 -1.83483,-5.72428 -5.98129,-5.77934 a 120.55865,120.55865 0 0 0 -48.60137,9.17355 47.390503,47.390503 0 0 1 -5.15546,1.98148 c -4.16482,1.2476 -7.33888,-0.0917 -9.17357,-4.07305 -1.83468,-3.98131 0.73384,-6.60494 4.18308,-8.31121 a 118.37534,118.37534 0 0 1 45.86774,-11.61371 c 4.42161,-0.27521 8.86162,-0.33024 13.28322,-0.27521 3.66953,0 5.70595,-1.43108 5.17402,-5.2656 -0.78904,-5.83438 1.99977,-7.33884 7.33874,-7.06364 a 150.55612,150.55612 0 0 1 90.15757,33.86871 c 34.40081,27.83252 53.99551,64.21476 60.12334,108.02759 0.49547,3.4676 0.91734,6.95355 1.13748,10.45784 0.22029,3.50429 0.11068,7.00859 0.14656,10.51286 a 183.47077,183.47077 0 0 1 -10.62287,63.18734 c 5.13721,-0.20182 10.27428,-0.31189 15.41148,-0.29354 a 44.253152,44.253152 0 0 0 2.75204,-9.6689 c 0.95411,-6.42147 4.67853,-21.81469 5.5042,-26.93352 a 159.61958,159.61958 0 0 0 1.39441,-34.23565 c -0.2019,-4.58676 1.41266,-6.67833 5.98111,-6.09122 5.70596,0.73387 9.76057,-1.74298 13.48513,-5.87108 5.50405,-6.14626 11.66867,-11.81551 17.41127,-17.81501 a 18.181954,18.181954 0 0 1 14.20072,-5.94445 q 28.51136,0.22017 57.02271,-0.5504 c 5.70596,-0.14686 9.37533,1.17421 12.6961,6.29303 a 22.823765,22.823765 0 0 0 26.86017,8.88 c 10.38449,-3.66941 16.31057,-12.75123 15.92533,-24.53005 a 22.695335,22.695335 0 0 0 -16.93435,-21.42938 23.465911,23.465911 0 0 0 -26.80513,10.64129 c -2.25672,3.76115 -4.97212,4.71521 -9.00849,4.7519 -22.01637,0.12844 -43.92284,0.56875 -65.88432,0.64215 a 16.512369,16.512369 0 0 0 -13.13652,5.66924 c -6.86183,7.46727 -14.01707,14.67767 -21.35596,21.68625 -5.761,5.50412 -12.32924,3.41256 -13.83373,-4.10975 a 158.00502,158.00502 0 0 0 -9.79735,-31.6854 c -1.66958,-3.88957 -1.37601,-6.65999 1.83468,-9.81569 q 29.50213,-29.61218 58.71069,-59.5913 a 12.842954,12.842954 0 0 1 9.81576,-4.10975 q 19.37441,0 38.76738,-0.44032 c 5.98113,-0.12844 11.74211,-0.51374 15.72344,5.50411 1.13749,1.68792 3.54092,2.62365 5.50406,3.66941 a 25.997809,25.997809 0 0 0 30.03422,-5.10048 26.676651,26.676651 0 0 0 4.73358,-30.23598 c -4.66029,-9.52214 -16.51247,-15.52162 -27.31885,-13.94377 a 25.685909,25.685909 0 0 0 -21.09916,20.73219 c -0.58716,3.87124 -2.23833,4.86199 -5.74261,4.86199 -14.95295,0 -29.90577,0.42197 -44.85857,0.36692 a 18.58559,18.58559 0 0 0 -14.21897,6.05455 q -26.65841,27.37382 -53.57348,54.50916 c -1.33938,1.35768 -2.31175,3.3575 -4.86204,3.66942 -0.27517,-24.45666 -0.5321,-48.76654 -0.82567,-73.09477 0,-2.91718 1.83484,-4.6785 3.66953,-6.54991 q 36.43724,-37.15281 72.80119,-74.41574 c 3.3942,-3.48595 6.40315,-5.6876 11.44854,-3.39421 a 18.512202,18.512202 0 0 0 7.61406,1.10083 27.81417,27.81417 0 0 0 15.61338,-50.362731 c -9.63224,-6.733383 -23.59444,-6.825109 -32.25416,-0.22016 -10.49456,8.017661 -14.67763,20.310211 -10.05428,31.887211 1.9449,4.86198 0.89909,7.61404 -2.5135,11.00826 -25.30065,25.33731 -50.32598,50.93147 -75.66329,76.2321 a 19.869884,19.869884 0 0 0 -6.25644,15.76015 c 0.40363,16.05369 0.42203,32.12573 0.5505,48.17942 0,1.83471 0.56874,3.83452 -0.97253,5.99949 -7.72399,-10.86148 -16.91595,-19.66807 -26.36472,-28.18112 a 10.641305,10.641305 0 0 1 -3.87127,-8.60477 q -0.16509,-32.4193 -0.71545,-64.80186 a 13.044772,13.044772 0 0 1 4.10967,-10.29274 c 11.37525,-11.33849 22.45695,-22.97055 33.83206,-34.30902 a 14.677662,14.677662 0 0 0 4.75196,-11.83387 c -0.29356,-6.6233 0.20175,-13.31998 -0.36699,-19.92493 -0.67881,-7.558991 0.88071,-12.659471 8.27448,-17.007749 11.7973,-6.971872 14.87953,-22.511852 8.62323,-34.859439 A 27.630698,27.630698 0 0 0 696.81958,38.738883 26.291363,26.291363 0 0 0 678.23404,61.452581 c -1.54127,11.980636 3.5409,21.48443 14.14553,27.153676 4.69694,2.513552 6.20125,5.504122 6.01791,10.402802 -0.25692,6.641651 -0.11068,13.301621 0.18334,19.943271 a 11.3018,11.3018 0 0 1 -3.81607,9.28362 c -9.2654,9.00842 -17.94352,18.67732 -27.70408,27.08028 -8.95344,7.70577 -11.98064,16.40228 -11.37526,28.10772 a 536.39517,536.39517 0 0 1 0.23852,56.01365 254.34553,254.34553 0 0 0 -34.27233,-16.51238 c -3.66938,-1.46777 -4.89868,-3.66942 -4.91708,-7.52231 q -0.60538,-67.00353 -1.44929,-133.933656 a 8.8432915,8.8432915 0 0 1 3.35742,-7.632395 17.870052,17.870052 0 1 0 -24.25486,-26.107882 c -7.137,7.815847 -6.36636,18.952521 2.31174,25.887715 a 10.237669,10.237669 0 0 1 4.05478,8.971737 c 0.11067,19.943251 0.38525,39.868181 0.58713,59.811471 0.25678,22.69532 0.45867,45.40901 0.77049,68.10434 0,4.18312 -0.45867,6.75174 -5.81603,5.72429 a 138.26357,138.26357 0 0 0 -26.95184,-2.51356 c -3.2107,0 -4.7886,-1.28428 -4.75182,-4.58675 0.036,-3.30249 -0.20189,-6.64165 -0.12858,-9.96248 0.11068,-3.77949 -1.61454,-5.17387 -5.33911,-5.24726 a 163.289,163.289 0 0 0 -25.94268,1.70628 c -50.91312,7.15536 -93.71688,29.63053 -126.59481,69.42535 -38.63907,46.87678 -55.33489,101.01901 -47.70243,161.45428 a 230.45764,230.45764 0 0 0 5.98112,30.19928 z M 633.81589,306.64293 a 11.74213,11.74213 0 0 1 0.36699,23.46591 12.127419,12.127419 0 0 1 -11.74209,-11.66874 11.485271,11.485271 0 0 1 11.3751,-11.79717 z m 244.65837,25.57582 a 6.8985012,6.8985012 0 0 1 7.33873,7.15537 7.8525492,7.8525492 0 0 1 -7.66909,7.85255 7.7424667,7.7424667 0 0 1 -7.33874,-7.5223 7.0452778,7.0452778 0 0 1 7.6691,-7.48562 z M 812.05783,103.96276 a 11.577006,11.577006 0 0 1 11.63203,11.50362 10.476181,10.476181 0 0 1 -10.82476,11.33849 11.356841,11.356841 0 0 1 -11.85218,-11.21007 11.852212,11.852212 0 0 1 11.04491,-11.63204 z M 694.63643,64.755063 c 0,-6.825115 4.14644,-11.008258 11.00827,-10.898175 a 10.494528,10.494528 0 0 1 10.91659,10.733045 10.843123,10.843123 0 0 1 -11.00825,11.338503 c -6.47661,0.01841 -10.76975,-4.348261 -10.86157,-11.173373 z"
       id="path30"
       style="stroke-width:1.22681" />
    <path
       class="cls-2"
       d="m 673.77595,457.27243 c 5.32055,-0.53206 10.6595,-1.04577 15.99861,-1.4861 a 143.87778,143.87778 0 0 0 9.74231,-59.40785 65.939396,65.939396 0 0 0 -0.62392,-6.60494 c -0.66042,-4.55008 -2.20153,-8.62312 -7.79742,-8.09106 -5.59588,0.53207 -6.36652,4.64181 -6.21966,9.33867 0.22014,6.99022 0.89895,13.88873 0.51371,20.95236 a 120.21005,120.21005 0 0 1 -11.61363,45.29892 z"
       id="path32"
       style="stroke-width:1.22681" />
    <path
       class="cls-1"
       d="m 205.43006,419.2206 c 2.78868,0.95404 5.65093,1.68795 8.47622,2.53188 22.84221,6.93521 44.2532,16.38396 61.7747,32.78624 5.50405,5.19223 20.32855,5.04545 20.32855,5.04545 l 27.92421,-0.36694 c 0,0 8.43974,0 12.65946,-0.47702 a 251.81364,251.81364 0 0 1 -4.32978,-90.26763 c 7.33874,-59.07759 34.12548,-108.74312 79.44273,-147.71233 41.83137,-35.99695 90.98324,-53.09645 145.8777,-54.01378 5.50406,-0.0917 6.56827,-1.83472 6.47643,-6.58661 -0.38522,-19.3745 -0.4953,-38.74902 -0.71543,-58.14189 q -0.31197,-28.236135 -0.62377,-56.472296 a 34.455812,34.455812 0 0 0 -0.20191,-4.972069 7.8708964,7.8708964 0 0 0 -6.71497,-7.118671 c -3.66951,-0.660498 -5.88945,1.614568 -7.33888,4.696844 a 75.002852,75.002852 0 0 0 -3.21071,8.237846 183.9478,183.9478 0 0 1 -32.05241,60.857266 c -19.52129,24.73186 -43.31746,32.16242 -73.18643,22.23667 -23.09898,-7.68743 -43.28082,-20.43866 -61.7563,-36.070381 -3.13728,-2.66031 -6.29309,-4.751887 -10.42112,-2.34841 -4.12805,2.40347 -4.67854,6.32975 -3.81623,10.622951 0.29356,1.44942 0.75223,2.86215 1.0458,4.29321 4.71518,22.677 7.72414,45.42739 3.92629,68.63643 -3.92629,23.8512 -14.67763,41.79464 -39.39115,49.06009 a 166.13279,166.13279 0 0 1 -38.10696,6.32975 c -14.27401,0.75222 -28.34611,-1.44944 -42.41837,-3.28414 -4.4216,-0.56874 -8.27447,0.3119 -10.38448,4.45835 -2.10986,4.14643 -0.55035,7.54064 2.20167,10.67799 2.75203,3.13734 5.50407,6.01784 8.05435,9.17352 14.93456,17.81502 27.61242,36.95103 35.07961,59.16935 7.11861,21.13582 2.82546,39.4462 -12.84294,55.37148 -16.34722,16.51237 -36.43724,26.75002 -57.90341,34.71266 a 41.097453,41.097453 0 0 0 -9.61387,4.16479 8.2745321,8.2745321 0 0 0 -3.90791,8.03602 7.6507313,7.6507313 0 0 0 5.66931,6.73338 z"
       id="path34"
       style="stroke-width:1.22681" />
    <path
       class="cls-1"
       d="m 540.85126,461.47393 a 56.013628,56.013628 0 0 0 34.96953,1.65122 c 0.47707,0 0.93574,-0.33024 1.39442,-0.29355 25.68589,-7.46725 45.22558,-32.78624 44.87696,-61.33427 a 61.02238,61.02238 0 0 0 -61.4811,-60.43528 c -33.88696,0.40363 -61.97643,28.63978 -61.59104,61.92138 a 63.022211,63.022211 0 0 0 41.83123,58.4905 z"
       id="path36"
       style="stroke-width:1.22681" />
    <path
       class="cls-2"
       d="m 609.89139,264.94001 c 0.23854,7.68743 -5.04553,13.43007 -12.32924,13.44842 a 12.237501,12.237501 0 0 1 -12.38428,-12.54939 c -0.12859,-7.68743 4.36658,-12.45767 11.90721,-12.65949 7.54065,-0.20181 12.56778,4.25652 12.80631,11.76046 z"
       id="path38"
       style="stroke-width:1.22681" />
    <path
       class="cls-2"
       d="m 694.19616,347.83212 c 0.23854,7.68743 -5.04539,13.43006 -12.32924,13.4484 a 12.237501,12.237501 0 0 1 -12.38428,-12.54939 c -0.12859,-7.68744 4.36657,-12.45766 11.90721,-12.65949 7.54065,-0.2018 12.56778,4.25653 12.80631,11.76048 z"
       id="path40"
       style="stroke-width:1.22681" />
    <path
       class="cls-3"
       d="m 908.76526,513.78143 a 251.74027,251.74027 0 0 1 -40.73052,-3.28412 Q 822.93763,503.397 777.29002,500.24128 c -51.37181,-3.66939 -102.56011,-8.43964 -153.91351,-11.00823 -52.6379,-2.60529 -105.36731,-3.2291 -158.11512,-2.86214 -45.68425,0.31189 -91.31345,1.39436 -136.92428,3.52264 -45.86773,2.14659 -91.73547,6.27471 -137.25447,11.90725 -16.16386,1.99984 -32.18088,5.19221 -48.27118,7.81585 -2.2751,0.36694 -5.3023,2.03653 -6.38475,-1.11918 -1.0826,-3.15569 2.27495,-3.88957 4.21972,-5.19221 25.50255,-17.15452 53.53684,-28.78657 82.81883,-37.59318 37.81326,-11.46692 76.58064,-18.45715 115.73326,-23.04391 a 1107.4479,1107.4479 0 0 1 141.45595,-6.8985 c 37.26291,0.40364 74.50757,1.70626 111.60537,5.13717 a 1290.9921,1290.9921 0 0 1 156.37211,23.41087 1069.2493,1069.2493 0 0 1 139.43777,39.64804 c 7.00853,2.51354 14.89777,3.94462 20.69554,9.81568 z"
       id="path42"
       style="stroke-width:1.22681" />
    <path
       class="cls-4"
       d="m 337.05202,443.3103 a 433.24788,433.24788 0 0 1 59.77476,-22.21829 620.33305,620.33305 0 0 1 95.4047,-20.54875 c 29.70402,-4.018 59.53636,-6.89848 89.25862,-6.36641 a 600.75671,600.75671 0 0 1 83.4975,6.73337 747.82687,747.82687 0 0 1 74.14057,15.26477 540.37647,540.37647 0 0 1 109.38528,42.06985 501.40728,501.40728 0 0 1 78.89239,50.61958 c 2.05498,1.59619 5.63252,3.13735 4.51343,6.01784 -1.32097,3.35752 -4.7702,1.00908 -7.19203,0.56876 -44.93201,-8.05437 -89.44198,-18.09021 -134.1172,-27.41052 -35.3548,-7.33884 -70.6363,-15.1914 -106.30291,-21.06247 -22.23666,-3.66942 -44.28982,-8.51305 -66.54489,-12.03567 -19.04422,-3.02726 -38.25368,-5.13718 -57.42636,-7.33883 a 1119.5387,1119.5387 0 0 0 -147.32701,-7.1737 c -22.01652,0.42197 -43.90458,2.86214 -65.86607,4.36659 -2.91714,0.16513 -5.88931,1.28429 -10.09078,-1.48612 z"
       id="path44"
       style="stroke-width:1.22681" />
  </g>
  <g
     id="g85578"
     transform="translate(-5.385723e-5)">
    <g
       id="g81868"
       transform="translate(11.520612,-26.280092)">
      <path
         class="cls-1"
         d="M 1228.8234,69.757206 V 246.24721 h -29.78 v -10.29 q -16.17,13 -34.46,13 a 42.37,42.37 0 0 1 -23.19,-6.54 44.26,44.26 0 0 1 -16.06,-18.57 q -5.85,-12.08 -5.85,-28.41 0,-16.11 6.28,-27.85 a 43.19,43.19 0 0 1 17.34,-17.89 51.19,51.19 0 0 1 25.31,-6.15 48.67,48.67 0 0 1 17.23,3 35.79,35.79 0 0 1 13.62,8.87 V 69.757206 Z m -39.56,149.090004 a 27.42,27.42 0 0 0 9.78,-11.08 v -23.93 a 22.17,22.17 0 0 0 -9.14,-11.42 28.09,28.09 0 0 0 -15.53,-4.25 23.31,23.31 0 0 0 -17.34,7.61 q -7.34,7.6 -7.34,19.23 a 29.17,29.17 0 0 0 3.4,14 26,26 0 0 0 9,10 22.32,22.32 0 0 0 12.23,3.58 q 8.94,-0.05 14.94,-3.74 z"
         id="path6" />
      <path
         class="cls-1"
         d="m 1341.6334,148.49721 v 97.75 h -27 l -2.12,-15.66 a 37.78,37.78 0 0 1 -13.72,14.88 38.56,38.56 0 0 1 -20.74,5.48 q -12.76,0 -21.28,-8.28 -8.52,-8.28 -8.72,-21 v -73.17 h 29.78 v 61.51 q 0.65,14.32 12.55,14.32 9.78,0 15.64,-10.07 5.86,-10.07 5.85,-26 v -39.76 z"
         id="path8" />
      <path
         class="cls-2"
         d="m 1425.6634,245.79721 a 56.5,56.5 0 0 1 -18.19,3.13 q -24.26,0 -38.4,-13.75 -14.14,-13.75 -14.14,-37.92 0,-15.66 6.91,-27.4 a 47.13,47.13 0 0 1 18.19,-17.9 49.81,49.81 0 0 1 24.25,-6.15 q 23.18,0 37.65,13 l -14.47,20.11 a 31.15,31.15 0 0 0 -20.42,-7.61 20.33,20.33 0 0 0 -15.85,7.38 q -6.48,7.39 -6.48,18.57 0,11.18 7,18.68 7,7.5 18.29,7.49 9.78,0 16.17,-5.59 l 14.89,19.69 a 47.86,47.86 0 0 1 -15.4,8.27 z"
         id="path10" />
      <path
         class="cls-2"
         d="m 1450.3334,169.29721 a 48.31,48.31 0 0 1 18.93,-18.68 56.12,56.12 0 0 1 27.76,-6.82 q 15.52,0 27.34,6.82 a 47,47 0 0 1 18.19,18.68 55.79,55.79 0 0 1 6.38,26.84 57.07,57.07 0 0 1 -6.38,27.07 46.56,46.56 0 0 1 -18.19,18.9 q -11.8,6.83 -27.76,6.82 -15.54,0 -27.55,-6.37 a 45.71,45.71 0 0 1 -18.72,-18.23 q -6.71,-11.85 -6.7,-28.19 a 53.57,53.57 0 0 1 6.7,-26.84 z m 29.67,46.42 a 20.11,20.11 0 0 0 16.17,7.71 20.34,20.34 0 0 0 16.49,-7.6 q 6.27,-7.6 6.27,-19.46 0,-11.86 -6.27,-19.46 a 20.35,20.35 0 0 0 -16.49,-7.61 20.09,20.09 0 0 0 -16.17,7.72 q -6.37,7.71 -6.38,19.35 -0.01,11.64 6.38,19.35 z"
         id="path12" />
      <path
         class="cls-2"
         d="m 1706.6834,151.62721 q 8.19,8.06 8.62,21.25 v 73.37 h -29.57 v -60.4 c -0.29,-4.92 -1.06,-8.61 -2.34,-11.07 -1.28,-2.46 -3.76,-3.84 -7.45,-4.14 q -10.42,0 -16.27,10.63 -5.85,10.63 -5.85,24.94 v 40 h -29.78 v -60.4 q -0.43,-7.38 -2.55,-11.07 -2.12,-3.69 -7.87,-4.14 -10,0 -15.75,10.63 a 50.79,50.79 0 0 0 -5.74,24.49 v 40.49 h -29.78 v -97.71 h 27 l 2.12,15.43 q 11.28,-20.35 33.61,-20.35 11.28,0 18.62,4.8 a 24.6,24.6 0 0 1 10.1,14.21 48.08,48.08 0 0 1 14.15,-13.87 31.33,31.33 0 0 1 16.91,-5.14 q 13.63,0 21.82,8.05 z"
         id="path14" />
      <path
         class="cls-2"
         d="m 1821.8734,150.05721 a 44.19,44.19 0 0 1 16.06,18.57 q 5.85,12.07 5.85,28.41 0,16.09 -6.49,27.85 a 43.65,43.65 0 0 1 -18.03,17.89 55.66,55.66 0 0 1 -26.48,6.15 43.22,43.22 0 0 1 -15.85,-3 33.47,33.47 0 0 1 -12.87,-8.61 v 81.53 h -29.57 v -172.59 h 25.53 l 2.55,11.63 q 17,-14.31 36.16,-14.31 a 42.37,42.37 0 0 1 23.14,6.48 z m -16.17,66.66 q 7.88,-7.61 7.87,-19.23 0,-12.09 -7.12,-19.8 a 22.93,22.93 0 0 0 -17.55,-7.72 28,28 0 0 0 -14.79,3.69 27.25,27.25 0 0 0 -9.89,11.07 v 23.94 a 21.82,21.82 0 0 0 8.41,11.41 24,24 0 0 0 14.14,4.25 26.26,26.26 0 0 0 18.93,-7.61 z"
         id="path16" />
      <path
         class="cls-1"
         d="m 1042.6934,252.63721 c -31.07,2.1 -58.24,-24.22 -57.68,-55.62 0.67,-38 31.62,-56.63 53.23,-55.68 v 23.78 c -14.83,2.17 -26.75,13.38 -26.42,32.7 0.28,16.4 11.47,28.38 27.41,30.22 1.24,0.14 3.27,1.73 3.3,2.71 0.29,7.18 0.16,14.38 0.16,21.89 z"
         id="path18" />
      <path
         class="cls-1"
         d="m 1102.8834,202.48721 h -64.62 v -23.66 h 35.24 c -1.12,-7 -7.49,-11.45 -21.33,-15.27 v -22.51 c 16.15,0.69 29.74,6.61 40.31,18.55 10.66,12.1 14.01,26.41 10.4,42.89 z"
         id="path20" />
      <path
         class="cls-2"
         d="m 1563.0234,305.47721 c 1.89,0 2.83,0.77 2.83,2.33 v 8.69 c 0,1.55 -0.94,2.33 -2.83,2.33 h -40.25 c -1.8,0 -2.84,-0.85 -2.84,-2.33 v -6.68 c 0,-17.85 27.78,-22.9 29.29,-29 0.57,-2.33 -0.94,-4.35 -4.63,-4.35 -4.44,0 -6.61,2 -7.27,5.2 -0.29,1.55 -1.23,2.25 -3.12,1.94 l -10.77,-1.94 c -1.7,-0.31 -2.55,-1.16 -2.46,-2.56 0.57,-5.59 4.16,-16 23.62,-16 21.17,0 21.93,13.74 21.83,16.07 0,15.21 -24.76,17.62 -28.06,25.46 -0.19,0.55 0.09,0.86 0.85,0.86 z"
         id="path22" />
      <path
         class="cls-2"
         d="m 1593.9234,320.22721 c -22.39,0 -23.72,-18.4 -23.72,-28.57 0,-10.48 0.76,-28.57 23.72,-28.57 23.15,0 23.72,18.4 23.72,28.57 0,10.17 -1.32,28.57 -23.72,28.57 z m -7.46,-28.57 c 0,7.84 0.09,15.21 7.46,15.21 7,0 7.47,-7.37 7.47,-15.21 0,-7.84 -0.13,-15.24 -7.47,-15.24 -6.99,0 -7.46,7.4 -7.46,15.24 z"
         id="path24" />
      <path
         class="cls-2"
         d="m 1663.4634,305.47721 c 1.89,0 2.84,0.77 2.84,2.33 v 8.69 c 0,1.55 -1,2.33 -2.84,2.33 h -40.2 c -1.8,0 -2.84,-0.85 -2.84,-2.33 v -6.68 c 0,-17.85 27.78,-22.9 29.3,-29 0.56,-2.33 -1,-4.35 -4.64,-4.35 -4.44,0 -6.61,2 -7.27,5.2 -0.28,1.55 -1.23,2.25 -3.12,1.94 l -10.77,-1.94 c -1.7,-0.31 -2.55,-1.16 -2.46,-2.56 0.57,-5.59 4.16,-16 23.62,-16 21.17,0 21.93,13.74 21.83,16.07 0,15.21 -24.75,17.62 -28.06,25.46 -0.19,0.55 0.09,0.86 0.85,0.86 z"
         id="path26" />
      <path
         class="cls-2"
         d="m 1708.5434,264.47721 c 2.64,0 3,1.17 1,2.57 -5.58,4 -14.75,11.41 -17.39,16.69 -0.28,0.62 0.19,0.93 1.13,0.85 14.74,-1.16 23.44,7 23.44,16.77 0,10.17 -7.94,18.87 -23.72,18.87 -15.78,0 -23.72,-8.7 -23.72,-18.87 0,-9.86 6.9,-26.86 21.55,-35.94 a 6.14,6.14 0 0 1 3.49,-0.94 z m -23,38.28 c 0,4 2.93,5.82 7.47,5.82 4.16,0 7.46,-1.86 7.46,-5.82 0,-3.96 -2.92,-5.82 -7.46,-5.82 -4.13,0 -7.44,1.86 -7.44,5.82 z"
         id="path28" />
    </g>
    <g
       id="g81854"
       transform="translate(-10.860389,-28.272615)">
      <a
         id="a81845"
         transform="translate(-6.8897545)">
        <text
           xml:space="preserve"
           style="font-style:normal;font-variant:normal;font-weight:bold;font-stretch:normal;font-size:56px;line-height:1.25;font-family:'Josefin Sans';-inkscape-font-specification:'Josefin Sans, Bold';font-variant-ligatures:normal;font-variant-caps:normal;font-variant-numeric:normal;font-variant-east-asian:normal"
           x="1120.7224"
           y="448.65076"
           id="text24809"><tspan
             sodipodi:role="line"
             id="tspan24807"
             x="1120.7224"
             y="448.65076"
             style="font-style:normal;font-variant:normal;font-weight:bold;font-stretch:normal;font-size:56px;font-family:'Josefin Sans';-inkscape-font-specification:'Josefin Sans, Bold';font-variant-ligatures:normal;font-variant-caps:normal;font-variant-numeric:normal;font-variant-east-asian:normal;fill:#17678d;fill-opacity:1">04 a 08 de Maio de 2026</tspan></text>
      </a>
      <text
         xml:space="preserve"
         style="font-style:normal;font-variant:normal;font-weight:600;font-stretch:normal;font-size:48px;line-height:1.25;font-family:'Josefin Sans';-inkscape-font-specification:'Josefin Sans, Semi-Bold';font-variant-ligatures:normal;font-variant-caps:normal;font-variant-numeric:normal;font-variant-east-asian:normal"
         x="1222.4563"
         y="511.6387"
         id="text24809-2"><tspan
           sodipodi:role="line"
           id="tspan24807-8"
           x="1222.4563"
           y="511.6387"
           style="font-style:normal;font-variant:normal;font-weight:600;font-stretch:normal;font-size:48px;font-family:'Josefin Sans';-inkscape-font-specification:'Josefin Sans, Semi-Bold';font-variant-ligatures:normal;font-variant-caps:normal;font-variant-numeric:normal;font-variant-east-asian:normal;fill:#fbb924;fill-opacity:1">Campo Grande - MS</tspan></text>
    </g>
    <rect
       style="fill:#098036;fill-opacity:1;stroke-width:0.999999"
       id="rect81745"
       width="318.82809"
       height="5.5188637"
       x="1277.6935"
       y="334.11414" />
  </g>
</svg>
